<svg xmlns="http://www.w3.org/2000/svg" viewBox="0 0 21 21"><defs><clipPath id="prefix__clip-path"><path id="prefix__Rectangle_Copy_3" d="M0 0H21V21H0z" class="prefix__cls-1" data-name="Rectangle Copy 3" transform="translate(-.071 -.442)"></path></clipPath><style>
            .prefix__cls-1{fill:#9c3353}
        </style></defs><g id="prefix__Mask_Group_34" data-name="Mask Group 34" transform="translate(.071 .442)"><path id="prefix__Layer_2" d="M25.845 33.582l.809 1.666a3.032 3.032 0 0 0 2.2 1.677v.314a5.447 5.447 0 1 0 10.891 0v-5.1a3.179 3.179 0 0 0 2.582-3.416 3.106 3.106 0 0 0-6.2 0 3.179 3.179 0 0 0 2.582 3.416v5.1a4.41 4.41 0 1 1-8.816 0v-.314a3.032 3.032 0 0 0 2.2-1.677l.809-1.666a5.864 5.864 0 0 0 2.178-4.593v-2.662a2.138 2.138 0 0 0-1.068-1.852 1.038 1.038 0 0 0-1.174-.8 1.059 1.059 0 0 0-.867 1.137 1.048 1.048 0 0 0 1.029.983 1.022 1.022 0 0 0 .679-.266 1.076 1.076 0 0 1 .358.8v2.661a4.787 4.787 0 0 1-1.831 3.8l-.041.032a4.572 4.572 0 0 1-5.591 0l-.041-.027a4.835 4.835 0 0 1-1.833-3.807v-2.661a1.063 1.063 0 0 1 .695-1 1.022 1.022 0 0 0 1.259.386 1.071 1.071 0 0 0 .617-1.191 1.023 1.023 0 0 0-1.928-.281 2.115 2.115 0 0 0-1.68 2.086v2.661a5.864 5.864 0 0 0 2.182 4.594zm13.38-4.061a.532.532 0 1 1 .519-.532.526.526 0 0 1-.52.531zm-2.074-.532a2.108 2.108 0 0 1 1.9-2.128 2.085 2.085 0 0 1 2.224 1.762 2.13 2.13 0 0 1-1.526 2.421v-.534a1.6 1.6 0 0 0 1.015-1.775 1.549 1.549 0 0 0-3.067 0 1.6 1.6 0 0 0 1.015 1.775v.532a2.12 2.12 0 0 1-1.562-2.054zm-5.99 5.786a1.979 1.979 0 0 1-3.578 0l-.13-.271h.062l.29.09.145.043c.145.037.285.069.43.1a5.626 5.626 0 0 0 1.95 0 4.24 4.24 0 0 0 .42-.1l.156-.043.28-.09h.067z" class="prefix__cls-1" data-name="Layer 2" transform="translate(-22.458 -23.188)"></path></g></svg>