<svg xmlns="http://www.w3.org/2000/svg" viewBox="0 0 21.464 20.544"><defs><clipPath id="prefix__clip-path"><rect id="prefix__Rectangle_Copy_9" width="21.464" height="20.544" class="prefix__cls-1" data-name="Rectangle Copy 9" rx="10.272"></rect></clipPath><style>
            .prefix__cls-1{fill:#9c3353}
        </style></defs><g id="prefix__Mask_Group_154" data-name="Mask Group 154"><g id="prefix__book" transform="translate(1.01)"><g id="prefix__Group_3720" data-name="Group 3720"><path id="prefix__Path_4274" d="M18.306 10.979V9.07a.586.586 0 0 0-.57-.6 16.293 16.293 0 0 0-3.311.319 5.087 5.087 0 0 0-2.139-1.308 4.3 4.3 0 0 0 1.424-3.226A4.132 4.132 0 0 0 9.722 0a4.132 4.132 0 0 0-3.987 4.255 4.3 4.3 0 0 0 1.423 3.224A5.087 5.087 0 0 0 5.02 8.787a16.3 16.3 0 0 0-3.311-.319.586.586 0 0 0-.57.6v1.909A1.8 1.8 0 0 0 0 12.681v1.2a1.8 1.8 0 0 0 1.139 1.7V17.5a.586.586 0 0 0 .57.6 12.747 12.747 0 0 1 7.7 2.347.546.546 0 0 0 .632 0 12.747 12.747 0 0 1 7.7-2.347.586.586 0 0 0 .57-.6v-1.913a1.8 1.8 0 0 0 1.139-1.7v-1.2a1.805 1.805 0 0 0-1.144-1.708zM6.874 4.255a2.958 2.958 0 0 1 2.848-3.05 2.958 2.958 0 0 1 2.848 3.05 2.936 2.936 0 0 1-2.848 3.01 2.936 2.936 0 0 1-2.848-3.01zM1.709 14.487a.587.587 0 0 1-.57-.6v-1.2a.587.587 0 0 1 .57-.6.587.587 0 0 1 .57.6v1.2a.587.587 0 0 1-.57.6zm7.444 4.377A13.674 13.674 0 0 0 2.279 16.9v-1.313a1.8 1.8 0 0 0 1.139-1.7v-1.2a1.8 1.8 0 0 0-1.139-1.7V9.68a12.381 12.381 0 0 1 6.874 2.12zm.57-8.1a13.21 13.21 0 0 0-3.314-1.61 3.843 3.843 0 0 1 2.175-.683h2.279a3.843 3.843 0 0 1 2.175.683 13.209 13.209 0 0 0-3.316 1.607zm7.443 6.136a13.675 13.675 0 0 0-6.874 1.961V11.8a12.38 12.38 0 0 1 6.874-2.12v1.3a1.8 1.8 0 0 0-1.139 1.7v1.2a1.8 1.8 0 0 0 1.139 1.7zm1.139-3.018a.571.571 0 1 1-1.139 0v-1.2a.571.571 0 1 1 1.139 0z" class="prefix__cls-1" data-name="Path 4274" transform="translate(0 -.001)"></path></g></g></g></svg>