<svg xmlns="http://www.w3.org/2000/svg" viewBox="0 0 21 21"><defs><clipPath id="prefix__clip-path"><path id="prefix__Rectangle_1812" d="M0 0H21V21H0z" data-name="Rectangle 1812" transform="translate(713 996)" style="stroke: rgb(112, 112, 112); fill: rgb(156, 51, 83);"></path></clipPath></defs><g id="prefix__Mask_Group_59" data-name="Mask Group 59" transform="translate(-713 -996)"><g id="prefix__noun_Candle_3186526" transform="translate(716.064 996)"><path id="prefix__Path_1017" d="M21.6 27.092V16.586a1.29 1.29 0 0 0-1.313-1.313h-2.194v-.482a2.2 2.2 0 0 0 1.751-2.145c0-1.051-1.532-3.327-1.839-3.765a.393.393 0 0 0-.613-.088l-.088.088c-.304.439-1.837 2.719-1.837 3.766a2.2 2.2 0 0 0 1.751 2.145v.482h-2.189a1.29 1.29 0 0 0-1.313 1.313v10.505h-3.064a.439.439 0 0 0-.438.438c0 .088 0 .131.044.175.875 1.795.919 1.97 1.269 1.97 13.307 0 12.476.088 12.651-.219 1.401-2.756 1.622-2.364-2.578-2.364zm-5.258-14.445a9.132 9.132 0 0 1 1.313-2.714 8.661 8.661 0 0 1 1.313 2.714 1.313 1.313 0 1 1-2.626 0zm-1.751 3.94a.414.414 0 0 1 .438-.438h5.253a.414.414 0 0 1 .438.438v2.845a.657.657 0 0 1-1.313 0v-.875a1.532 1.532 0 1 0-3.064 0v.219a.875.875 0 0 1-1.751 0zm0 3.677a1.748 1.748 0 0 0 2.626-1.707.657.657 0 1 1 1.313 0v.875a1.551 1.551 0 0 0 1.532 1.532 1.756 1.756 0 0 0 .657-.131v6.26h-6.128zm8.93 8.58H11.79l-.438-.875h12.607z" data-name="Path 1017" transform="translate(-10.214 -8.687)" style="fill: rgb(156, 51, 83);"></path></g></g></svg>