<svg xmlns="http://www.w3.org/2000/svg" viewBox="0 0 20 20"><defs><clipPath id="prefix__clip-path"><path id="prefix__Rectangle_1853" d="M0 0H20V20H0z" data-name="Rectangle 1853" style="stroke: rgb(112, 112, 112); fill: rgb(33, 33, 33);"></path></clipPath><style>
            .prefix__cls-3{fill:#212121}
        </style></defs><g id="prefix__Mask_Group_77" data-name="Mask Group 77" transform="rotate(180 10 10)"><g id="prefix__more_1_" data-name="more (1)" transform="translate(0 7.5)"><g id="prefix__Group_2173" data-name="Group 2173"><g id="prefix__Group_2172" data-name="Group 2172"><path id="prefix__Path_1057" d="M2.5 0A2.5 2.5 0 1 0 5 2.5 2.5 2.5 0 0 0 2.5 0zm0 4.167A1.667 1.667 0 1 1 4.167 2.5 1.668 1.668 0 0 1 2.5 4.167z" class="prefix__cls-3" data-name="Path 1057"></path></g></g><g id="prefix__Group_2175" data-name="Group 2175" transform="translate(7.5)"><g id="prefix__Group_2174" data-name="Group 2174"><path id="prefix__Path_1058" d="M2.5 0A2.5 2.5 0 1 0 5 2.5 2.5 2.5 0 0 0 2.5 0zm0 4.167A1.667 1.667 0 1 1 4.167 2.5 1.668 1.668 0 0 1 2.5 4.167z" class="prefix__cls-3" data-name="Path 1058"></path></g></g><g id="prefix__Group_2177" data-name="Group 2177" transform="translate(15)"><g id="prefix__Group_2176" data-name="Group 2176"><path id="prefix__Path_1059" d="M2.5 0A2.5 2.5 0 1 0 5 2.5 2.5 2.5 0 0 0 2.5 0zm0 4.167A1.667 1.667 0 1 1 4.167 2.5 1.668 1.668 0 0 1 2.5 4.167z" class="prefix__cls-3" data-name="Path 1059"></path></g></g></g></g></svg>