<svg xmlns="http://www.w3.org/2000/svg" viewBox="0 0 690 362" fill="none"><path d="M-2.53737 361.326C-2.53737 361.326 -83.1045 200.27 75.6843 200.27C159.583 200.27 125.021 156.081 182.061 104.94C239.1 53.7996 438.583 12.941 481.039 111.695C523.496 210.449 418.57 285.427 519.959 272.564C641.801 257.108 689.932 361.326 689.932 361.326H-2.53737Z" fill="#772A40"></path><path d="M166.911 334.531V358.928H282.007V334.531H166.911Z" fill="#7E2C44"></path><path d="M131.424 334.531V358.928H246.52V334.531H131.424Z" fill="#942445"></path><path d="M327 359.128H412.703V246.679H327V359.128Z" fill="#7E2C44"></path><path d="M300.863 358.923H386.564V246.474H300.863V358.923Z" fill="#942445"></path><path d="M387 246.679L413.426 263.563V246.679H387Z" fill="#7E2C44"></path><path d="M463.034 87.7182C461.708 87.5283 457.715 90.9929 457.715 90.9929C449.191 91.9186 436.728 94.0429 432.242 94.8535C429.058 95.4287 420.505 92.6918 412.149 89.5482C402.211 85.808 392.555 81.4953 392.555 81.4953C387.04 81.2304 380.779 90.6746 391.962 96.6782C393.669 97.5958 400.082 99.1609 407.469 100.59C407.469 100.59 407.469 100.59 407.469 100.587C417.658 102.559 429.697 104.268 433.792 103.669C438.552 102.968 452.024 98.3422 460.038 94.8C460.038 94.8 460.047 94.7974 460.058 94.792C460.09 94.7786 460.118 94.7652 460.146 94.7519C460.628 94.5405 462.589 93.7192 463.9 93.7941C465.402 93.877 468.745 91.2979 468.848 90.6077C468.947 89.9201 464.359 87.9055 463.034 87.7182Z" fill="#ED975D"></path><path d="M452.626 206.689L447.932 207.585C447.932 207.585 426.451 184.928 423.136 175.395C421.364 170.3 410.023 168.099 398.17 165.223C387.856 162.719 377.154 159.703 372.044 153.817C361.057 141.172 378.941 125.634 378.941 125.634C378.941 125.634 397.959 136.245 414.364 147.205C425.83 154.865 436.021 162.695 437.558 167.196C441.288 178.14 449.197 198.944 452.626 206.689Z" fill="#2B478B"></path><path d="M446.341 214.163H448.983C449.866 214.033 450.519 213.792 451.425 213.681C452.805 213.511 453.437 214.041 453.563 214.163C453.58 214.179 453.588 214.188 453.588 214.188H464.803C465.086 213.81 464.815 212.934 464.55 212.289C464.373 211.851 463.983 211.519 463.501 211.388C462.312 211.064 459.967 210.777 457.818 208.952C456.612 207.927 451.987 205.184 451.987 205.184L451.961 205.178C451.859 205.18 451.377 205.32 449.271 206.987C448.185 207.848 446.329 205.772 446.329 205.772C446.329 205.772 445.982 206.042 445.722 206.546C445.514 206.943 445.36 207.489 445.48 208.162C445.648 209.111 445.11 210.874 444.676 212.066C444.417 212.789 444.198 213.301 444.198 213.301C444.198 213.301 444.069 213.896 446.341 214.163Z" fill="#233862"></path><path d="M414.364 147.205L398.17 165.223C387.856 162.719 377.154 159.703 372.044 153.817C361.057 141.172 378.941 125.634 378.941 125.634C378.941 125.634 397.959 136.245 414.364 147.205Z" fill="#1E3D70"></path><path d="M399.648 137.794C399.648 137.794 398.343 141.658 396.217 147.472C393.529 154.823 389.528 165.29 385.187 174.997C384.232 177.13 383.261 179.227 382.283 181.246C378.672 188.715 374.978 195.119 371.724 198.372C365.875 204.222 351.662 241.829 351.662 241.829L348.12 240.909C348.12 240.909 343.181 208.796 360.674 190.523C360.862 190.328 361.008 190.102 361.028 189.841C361.03 189.839 361.03 189.836 361.03 189.834C361.264 187.129 362.096 175.016 363.909 162.741C364.354 159.73 364.858 156.711 365.422 153.818C365.459 153.633 365.496 153.45 365.533 153.267C368.193 139.891 370.74 133.941 374.029 130.947L398.218 137.411L399.648 137.794Z" fill="#2B478B"></path><path d="M347.723 246.449H350.365C351.249 246.318 351.902 246.078 352.808 245.965C354.187 245.797 354.82 246.326 354.945 246.449C354.963 246.466 354.971 246.474 354.971 246.474H366.186C366.468 246.094 366.197 245.219 365.932 244.574C365.753 244.135 365.365 243.804 364.883 243.672C363.692 243.349 361.349 243.062 359.2 241.238C357.992 240.213 353.367 237.468 353.367 237.468L353.344 237.463C353.241 237.466 352.759 237.605 350.653 239.271C349.567 240.133 347.712 238.057 347.712 238.057C347.712 238.057 347.364 238.327 347.105 238.83C346.897 239.229 346.743 239.774 346.863 240.449C347.031 241.396 346.492 243.159 346.062 244.352C345.8 245.074 345.577 245.585 345.577 245.585C345.577 245.585 345.452 246.182 347.723 246.449Z" fill="#233862"></path><path d="M352.912 94.1205C352.912 94.1205 348.865 103.412 344.199 112.458C340.275 120.064 335.914 127.493 333.15 129.08C329.251 131.314 318.512 137.62 311.544 142.325C311.544 142.325 306.109 142.286 305.262 143.263C304.419 144.24 302.469 148.63 303.039 149.074C303.609 149.519 307.93 149.313 308.979 148.302C309.896 147.421 311.934 146.788 312.442 146.64C312.473 146.631 312.504 146.622 312.536 146.613C312.55 146.609 312.558 146.607 312.558 146.607V146.607C321.023 144.162 334.304 139.068 338.323 136.576C341.785 134.433 349.458 125.559 355.577 117.664C355.58 117.664 355.58 117.664 355.58 117.664C360.017 111.939 363.637 106.73 364.241 104.972C368.205 93.465 356.799 90.4391 352.912 94.1205Z" fill="#FFB27D"></path><path d="M374.076 57.6763C373.597 57.0208 373.109 56.4403 372.628 55.9186C373.226 55.9319 373.873 55.8757 374.412 55.6671C375.834 55.1159 376.481 50.8835 376.267 49.626C376.053 48.3713 374.081 44.7408 371.647 44.3796C369.213 44.0157 366.7 46.552 366.7 46.552C367.15 44.722 371.265 43.6653 371.265 43.6653C362.787 45.134 363.22 50.442 363.277 50.9343C355.516 48.3365 350.959 62.0586 350.959 62.0586L371.066 73.1829C371.066 73.1829 371.117 70.1517 373.035 70.347C376.028 70.652 378.519 63.7548 374.076 57.6763Z" fill="#2C3A64"></path><path d="M375.359 86.4688C370.744 88.5102 364.623 85.5699 364.654 85.5378C365.05 85.1686 364.91 84.0556 364.548 82.6029C364.187 81.086 363.329 79.0125 361.747 76.5378C361.419 76.0134 361.089 75.4864 360.692 74.9299L361.22 74.7453L370.183 71.3743C370.183 71.3743 371.634 73.8169 373.15 76.0429C374.435 77.8996 375.786 79.569 376.379 79.5075C376.413 79.4781 382.344 83.3146 375.359 86.4688Z" fill="#FFB27D"></path><path d="M370.182 72.209C369.951 75.2081 368.866 80.6231 364.548 82.6029C364.186 81.0859 363.328 79.0125 361.746 76.5378L370.182 72.209Z" fill="#ED975D"></path><path d="M361.221 79.9543C361.221 79.9543 372.892 75.6362 369.914 68.8567C366.938 62.0746 366.439 56.9512 358.864 59.4233C351.289 61.8927 350.984 65.0363 351.391 67.5271C351.799 70.0152 358.109 80.9014 361.221 79.9543Z" fill="#FFB27D"></path><path d="M365.575 67.3103C370.964 66.596 372.537 64.552 372.537 64.552C372.537 64.552 367.576 63.2143 364.66 58.6528C364.66 58.6528 358.604 56.7345 354.115 59.9396C353.841 60.274 353.645 60.6673 353.548 61.1275C352.519 60.8118 350.971 60.8947 350.079 63.6236C348.74 67.7223 353.508 72.1983 353.508 72.1983C354.665 71.8933 353.36 68.2387 353.177 66.2883C353.043 64.8543 353.87 63.0163 354.314 62.1468C354.884 62.8424 360.57 69.5469 367.51 69.8145C367.51 69.8145 363.842 68.6213 360.505 66.2857C362.166 67.0508 363.93 67.527 365.575 67.3103Z" fill="#2C3A64"></path><path d="M397.573 100.437C397.473 100.111 397.368 99.7709 397.257 99.4231C398.989 96.3143 399.842 93.5131 400.201 91.1401C400.993 86.1291 399.642 83.0336 399.642 83.0336C399.642 83.0336 391.548 79.0045 387.974 78.4935C387.957 78.4881 387.943 78.4828 387.929 78.4801C387.886 78.4747 387.837 78.4694 387.786 78.4667C384.178 78.0012 376.366 79.4967 376.366 79.4967C376.366 79.4967 377.874 83.2637 373.624 85.7732C369.372 88.2827 364.832 85.1284 364.832 85.1284C364.695 85.2167 364.55 85.3104 364.402 85.412L364.399 85.4094C364.399 85.4094 353.215 92.3386 352.212 93.9198C351.206 95.5036 346.905 103.343 346.905 103.343C346.905 103.343 348.27 109.921 363.378 110.472C364.621 113.3 365.573 116.059 365.881 118.36C367.081 127.293 365.687 134.337 367.086 139.552C368.486 144.766 393.694 141.792 398.26 140.789C402.826 139.786 401.797 135.209 402.15 130.765C402.592 125.179 399.061 105.365 397.573 100.437Z" fill="#699DEE"></path><path d="M400.202 91.1401C399.84 93.5212 398.985 96.3357 397.238 99.4606C396.842 97.8206 395.229 91.8197 392.624 89.0988C392.624 89.0988 397.007 89.468 400.202 91.1401Z" fill="#4A82D3"></path><path d="M297.558 149.68C297.558 149.68 302.254 144.337 303.266 143.706C304.278 143.074 308.713 141.967 308.966 142.19C309.22 142.413 309.231 142.736 308.681 143.191C308.134 143.647 306.034 144.796 306.333 144.926C306.635 145.056 312.962 142.097 313.877 143.092C314.789 144.087 313.358 148.194 310.919 150.163C308.482 152.131 301.2 152.971 300.744 153.246C296.859 155.577 297.558 149.68 297.558 149.68Z" fill="#ED975D"></path><path d="M214.868 137.344C214.868 137.344 221.617 144.858 230.207 141.714C230.207 141.714 232.057 137.518 232.082 134.423C232.085 134.043 232.091 133.674 232.097 133.323C232.142 129.84 232.268 127.884 232.268 127.884C232.268 127.884 232.265 127.884 232.259 127.884C231.869 127.731 219.123 122.819 219.135 123.226C219.354 132.649 214.868 137.344 214.868 137.344Z" fill="#FFB27D"></path><path d="M220.416 125.473C221.645 127.611 225.863 131.795 232.099 133.323C232.144 129.84 232.27 127.884 232.27 127.884C232.27 127.884 232.267 127.884 232.261 127.884C231.908 127.796 220.052 124.842 220.416 125.473Z" fill="#ED975D"></path><path d="M234.939 127.523C234.939 127.523 220.607 130.685 218.646 122.276C216.685 113.868 213.513 108.613 222.582 106.24C231.651 103.864 234.181 106.706 235.564 109.362C236.946 112.022 238.616 126.485 234.939 127.523Z" fill="#FFB27D"></path><path d="M219.136 124.569C218.939 124.687 215.856 125.575 210.016 114.654C209.098 112.939 208.474 109.231 210.612 105.954C212.749 102.676 220.327 100.1 226.623 98.979C232.919 97.858 234.429 101.184 235.911 104.525C237.467 108.033 241.962 110.922 241.962 110.922C236.535 113.769 229.995 109.697 227.729 110.365C225.463 111.037 224.665 114.387 224.494 115.462C224.323 116.535 224.064 117.429 221.214 116.468C218.366 115.51 219.925 120.259 220.381 121.166C220.381 121.166 220.769 123.585 219.136 124.569Z" fill="#A9453D"></path><path d="M182.216 334.532H173.538C171.719 334.532 169.697 332.798 169.191 329.628C168.685 326.452 164.946 324.721 164.136 322.123C163.326 319.528 167.473 315.871 167.473 315.871L168.166 315.023L168.888 314.14L175.762 315.678C175.762 315.678 175.932 317.235 176.038 319.22C176.111 320.652 176.151 322.308 176.065 323.758C175.863 327.222 177.085 330.949 180.319 331.623C183.555 332.298 182.216 334.532 182.216 334.532Z" fill="#2C3A64"></path><path d="M242.629 334.609H219.626C219.407 334.569 219.239 334.523 219.139 334.473C217.603 333.729 218.085 328.046 218.267 326.291C218.304 325.965 218.33 325.775 218.33 325.775C218.33 325.775 226.418 319.523 227.53 324.312C227.567 324.459 227.607 324.606 227.649 324.75V324.753C229.054 329.232 235.33 331.268 238.958 331.835C241.728 332.271 242.447 333.831 242.629 334.609Z" fill="#2C3A64"></path><path d="M237.995 209.736C237.995 209.736 236.766 224.123 235.321 241.417C233.358 264.912 230.998 293.772 230.767 299.238C230.362 308.73 228.743 323.916 228.743 323.916C228.743 323.916 224.902 327.525 217.215 326.002C217.215 326.002 210.366 304.326 208.411 281.39C208.38 281.013 208.349 280.636 208.32 280.256C206.499 256.908 203.669 207.742 203.669 207.742L237.995 209.736Z" fill="#EE9849"></path><path d="M237.995 209.736C237.995 209.736 236.766 224.123 235.321 241.417L208.411 281.39C208.38 281.013 208.349 280.636 208.32 280.256C206.499 256.908 203.669 207.742 203.669 207.742L237.995 209.736Z" fill="#E58638"></path><path d="M232.383 211.444C232.383 211.444 210.241 263.551 195.68 288.038C181.122 312.526 176.572 319.359 176.572 319.359C176.572 319.359 168.23 316.229 167.472 314.092C167.472 314.092 173.04 266.817 182.79 255.294C188.299 248.782 194.771 229.241 195.076 222.406C195.378 215.573 197.045 202.048 197.045 202.048L232.383 211.444Z" fill="#EE9849"></path><path d="M181.686 202.766C181.686 202.766 181.113 209.274 180.693 210.273C180.272 211.272 177.473 214.37 177.149 214.325C176.825 214.281 176.631 214.037 176.795 213.406C176.959 212.776 177.925 210.828 177.619 210.878C177.313 210.929 174.109 216.415 172.833 216.106C171.557 215.797 170.309 211.896 171.068 209.141C171.828 206.385 176.981 202.059 177.178 201.615C178.847 197.85 181.686 202.766 181.686 202.766Z" fill="#ED975D"></path><path d="M179.309 204.417C181.76 205.155 182.153 204.988 182.153 204.988C182.153 204.988 194.081 184.601 195.289 182.735C196.498 180.869 220.617 159.873 220.617 159.873L214.419 138.176C214.419 138.176 186.987 171.523 184.024 176.308C179.129 184.215 176.261 202.579 176.261 202.579C176.261 202.579 177.384 203.837 179.309 204.417Z" fill="#1E3D70"></path><path d="M242.668 168.391C242.583 172.847 242.306 177.856 241.933 182.943C241.91 183.245 241.887 183.547 241.865 183.848C241.628 187 241.369 190.159 241.072 193.239C240.956 194.475 240.827 195.695 240.696 196.894L240.676 197.056C240.668 197.505 240.608 197.992 240.557 198.436C239.345 209.974 238.077 219.091 237.843 219.23C237.561 219.407 237.245 219.495 236.9 219.455C233.677 219.075 224.058 219.762 216.186 218.154C209.542 216.838 203.82 214.344 197.758 210.981C196.954 210.535 195.118 209.352 195.27 208.468C195.415 207.497 195.686 206.093 196.03 204.329C197.225 198.192 199.285 187.634 199.989 175.279C200.126 172.977 200.325 170.705 200.585 168.47C201.26 162.649 202.343 157.119 203.797 152.207C206.496 143.083 210.463 136.095 215.439 133.361C216.089 133.021 219.589 135.11 222.801 137.045C225.771 138.831 228.894 139.325 231.932 139.076L234.606 141.852C237.846 145.386 241.295 150.092 242.235 156.78C242.306 157.274 242.366 157.799 242.418 158.357C242.677 161.081 242.743 164.53 242.668 168.391Z" fill="#2A4E96"></path><path d="M242.669 168.391C242.583 172.847 242.307 177.856 241.934 182.943C241.911 183.245 241.888 183.547 241.865 183.848C223.454 173.03 220.618 153.233 220.618 153.233C229.676 153.607 236.872 155.561 242.418 158.357C242.677 161.081 242.743 164.53 242.669 168.391Z" fill="#1E3D70"></path><path d="M300.355 150.215C299.406 147.804 297.929 147.961 297.929 147.961C297.929 147.961 270.552 154.365 268.095 154.64C265.641 154.915 238.617 144.735 238.617 144.735C238.617 144.735 227.981 140.254 222.999 144.346C218.67 147.901 218.473 152.405 219.485 156.188C220.693 160.695 224.755 164.025 229.668 164.612C240.692 165.93 262.689 168.411 267.297 167.809C277.557 166.468 300.808 153.87 300.808 153.87C300.808 153.87 301.099 152.108 300.355 150.215Z" fill="#2A4E96"></path><path d="M570.29 197.316C570.29 197.316 574.092 200.625 573.351 202.977C572.607 205.328 569.176 206.895 568.711 209.769C568.249 212.642 566.394 214.21 564.724 214.21C563.054 214.21 556.764 214.21 556.764 214.21C556.764 214.21 555.533 212.188 558.502 211.578C561.472 210.968 562.589 207.592 562.404 204.457C562.219 201.322 562.683 197.142 562.683 197.142L568.99 195.749L570.29 197.316Z" fill="#2C3A64"></path><path d="M522.886 213.818C522.502 214 521.145 214.125 519.284 214.209H501.28C501.343 213.707 501.762 211.915 504.706 211.469C508.032 210.962 513.792 209.147 515.074 205.154C515.12 205.027 515.154 204.895 515.188 204.763C516.206 200.497 523.627 206.068 523.627 206.068C523.627 206.068 523.65 206.239 523.682 206.53C523.855 208.099 524.294 213.159 522.886 213.818Z" fill="#2C3A64"></path><path d="M505.587 99.6933C505.587 99.6933 506.713 112.894 508.038 128.761C509.839 150.316 512.005 176.792 512.219 181.808C512.589 190.517 514.074 204.449 514.074 204.449C514.074 204.449 517.597 207.759 524.651 206.364C524.651 206.364 530.932 186.476 532.728 165.433C532.756 165.089 532.785 164.741 532.81 164.394C534.48 142.972 537.077 97.866 537.077 97.866L505.587 99.6933Z" fill="#35488B"></path><path d="M505.587 99.6933C505.587 99.6933 506.713 112.894 508.038 128.762L532.728 165.433C532.756 165.089 532.785 164.741 532.81 164.394C534.48 142.972 537.077 97.866 537.077 97.866L505.587 99.6933Z" fill="#2C3A64"></path><path d="M510.734 101.261C510.734 101.261 531.049 149.067 544.408 171.533C557.766 194 561.938 200.269 561.938 200.269C561.938 200.269 569.593 197.396 570.289 195.436C570.289 195.436 565.181 152.064 556.235 141.491C551.179 135.517 545.243 117.589 544.963 111.318C544.687 105.049 543.154 92.641 543.154 92.641L510.734 101.261Z" fill="#35488B"></path><path d="M448.074 75.3312C448.074 75.3312 442.565 74.1487 441.636 74.2102C440.709 74.2691 437.466 75.5426 437.423 75.7887C437.378 76.0348 437.532 76.2381 438.093 76.2729C438.655 76.3077 440.498 76.0856 440.382 76.2943C440.265 76.5057 434.95 77.4849 434.893 78.4908C434.833 79.4941 437.745 81.3615 440.205 81.4846C442.665 81.6104 447.501 78.9269 447.917 78.8922C451.434 78.6059 448.074 75.3312 448.074 75.3312Z" fill="#FFB27D"></path><path d="M445.717 76.6448C444.924 74.2825 445.11 73.9079 445.11 73.9079C445.11 73.9079 467.448 62.5696 469.492 61.4191C471.538 60.2687 494.62 37.2095 494.62 37.2095L518.264 43.3174C518.264 43.3174 481.676 69.4828 476.431 72.3C467.767 76.9552 447.7 79.5904 447.7 79.5904C447.7 79.5904 446.335 78.5015 445.717 76.6448Z" fill="#E58638"></path><path d="M501.785 25.9996C501.785 25.9996 493.497 39.6896 485.395 41.4768C485.395 41.4768 485.731 36.8805 487.703 33.7315C486.897 32.8379 486.187 32.0166 485.571 31.2809C483.533 28.8275 482.564 27.3266 482.564 27.3266L485.312 20.3866L487.179 15.6779C488.076 17.2056 489.063 18.5085 490.094 19.6215C495.404 25.3522 501.785 25.9996 501.785 25.9996Z" fill="#FFB27D"></path><path d="M490.094 19.6214C490.094 19.6214 491.083 26.4838 485.571 31.2808C483.533 28.8275 482.564 27.3266 482.564 27.3266L485.312 20.3866C488.262 19.5438 490.094 19.6214 490.094 19.6214Z" fill="#ED975D"></path><path d="M480.378 28.3378C480.378 28.3378 492.764 23.8057 489.638 16.6089C486.511 9.41211 486.007 3.98105 477.967 6.57083C469.927 9.16061 469.594 12.4915 470.015 15.1294C470.434 17.77 477.078 29.3304 480.378 28.3378Z" fill="#FFB27D"></path><path d="M544.356 96.2528C539.36 102.995 502.007 112.006 502.449 107.337C502.62 105.552 502.848 102.404 502.443 98.1336C502.349 97.133 502.218 96.0735 502.047 94.9526C501.098 88.8205 498.844 80.9335 493.816 71.8077C493.44 71.1228 493.047 70.4325 492.639 69.7342C490.57 66.2027 488.806 62.4652 487.461 58.8133C484.873 51.7931 483.83 45.0751 485.135 40.6848C485.141 40.6634 485.149 40.642 485.155 40.6206C492.964 37.2336 495.991 24.0893 495.991 24.0893C495.991 24.0893 522.627 28.5786 537.55 61.9087C537.55 61.9087 548.702 90.3856 544.356 96.2528Z" fill="#EE9849"></path><path d="M502.443 98.1335C502.349 97.1329 502.218 96.0735 502.047 94.9525C501.098 88.8205 498.844 80.9334 493.816 71.8077C494.68 66.8956 495.871 62.8103 497.179 60.9723C502.492 53.4972 505.587 52.3281 505.587 52.3281C505.587 52.3281 513.553 83.871 502.443 98.1335Z" fill="#E58638"></path><path d="M460.455 90.6291C460.455 90.6291 453.085 90.9903 451.942 91.3782C450.802 91.7635 447.214 94.4522 447.253 94.776C447.293 95.0997 447.561 95.3003 448.279 95.1559C448.995 95.0141 451.229 94.1152 451.161 94.4175C451.095 94.7198 444.794 97.7349 445.102 99.0164C445.412 100.295 449.779 101.662 452.916 100.994C456.052 100.325 461.105 95.3351 461.612 95.1532C465.918 93.6122 460.455 90.6291 460.455 90.6291Z" fill="#FFB27D"></path><path d="M459.063 93.251C457.586 91.0117 458.652 89.9897 458.652 89.9897C458.652 89.9897 481.416 73.2604 483.2 71.5696C484.984 69.8787 493.249 42.9643 493.249 42.9643C493.249 42.9643 496.093 32.0727 502.757 30.8715C508.545 29.8281 512.546 32.5168 515.166 35.6685C518.283 39.4247 518.591 44.6043 516.001 48.7003C510.189 57.8957 498.464 76.1445 495.042 79.2614C487.421 86.2013 461.924 95.8996 461.924 95.8996C461.924 95.8996 460.223 95.0087 459.063 93.251Z" fill="#EE9849"></path><path d="M491.417 3.23998C491.502 3.07945 491.756 2.90823 492.369 2.73165C492.369 2.73165 491.793 2.54971 491.123 2.68883C490.776 1.89156 489.929 0.535154 488.345 0.524452C488.345 0.524452 489.254 0.746506 489.59 1.60263C487.418 0.307741 483.391 -0.066824 473.339 3.07676C460.09 7.21827 466.71 14.4392 468.717 15.0171C470.726 15.5949 474.422 11.8815 477.745 11.3732C481.071 10.8675 482.87 15.215 484.135 15.5762C485.403 15.9347 484.682 14.9475 486.011 13.9549C487.339 12.965 488.1 15.2953 488.071 16.9326C488.043 18.57 490.63 20.1217 490.63 20.1217C490.63 20.1217 490.63 20.1217 492.149 17.5078C493.666 14.894 493.252 5.40703 491.802 3.69746C491.676 3.54764 491.548 3.39515 491.417 3.23998Z" fill="#2B478B"></path><path d="M282.008 334.256V348.331L246.52 334.256H282.008Z" fill="#7E2C44"></path><path d="M468.361 214.209V358.923H585.731V214.209H468.361Z" fill="#7E2C44"></path><path d="M432.17 214.21V358.923H549.543V214.21H432.17Z" fill="#942445"></path><path d="M585.734 214.21V235.85L549.544 214.21H585.734Z" fill="#7E2C44"></path></svg>