<svg xmlns="http://www.w3.org/2000/svg" viewBox="0 0 540 336" fill="none"><path d="M444.592 31.24s-6.705-15.695-22.684-23.44c-7.741-3.75-13.533-5.685-19.144-7.098 0 0 9.323-2.213 24.409 4.499 6.854 3.05 13.76 7.021 18.328 12.974 2.9 3.78 6.522 11.17 6.516 13.065h-7.425z" fill="#33535F"></path><path d="M441.176 25.11c.002.02-.282.07-.824.145-.541.074-1.339.192-2.361.371-2.048.34-4.98.992-8.587 1.89-3.603.893-7.923 1.976-12.841 2.488-4.909.52-10.379.476-16.017-.348a67.922 67.922 0 0 1-15.472-4.16c-4.579-1.846-8.502-3.978-11.614-6.031-1.542-1.047-2.928-2.014-4.089-2.929-1.14-.945-2.164-1.709-2.919-2.427l-1.747-1.643c-.394-.38-.594-.587-.581-.6.015-.016.242.161.663.511l1.817 1.555c.774.69 1.816 1.423 2.969 2.339 1.175.885 2.569 1.822 4.116 2.839 6.219 3.977 15.715 8.36 26.942 9.954 5.59.816 11.007.877 15.876.391 4.874-.475 9.179-1.508 12.799-2.35 3.623-.846 6.582-1.439 8.649-1.71a34.07 34.07 0 0 1 2.385-.26c.546-.036.835-.046.836-.026z" fill="#33535F"></path><path d="M71.673 231.132c6.011-3.102 13.088-3.506 19.76-2.402 3.586.592 7.323 1.665 9.762 4.357 2.439 2.693 2.902 7.431.1 9.745-1.667 1.377-3.992 1.586-6.154 1.561-5.224-.06-11.02-.98-15.193 2.163-2.38 1.794-3.965 4.774-6.812 5.656-2.785.862-5.927-.781-7.404-3.294-1.476-2.514-1.525-5.656-.838-8.488 0 0 .726-6.176 6.78-9.298zM57.904 204.549c3.675 5.249 10.818 3.511 14.13.308 3.312-3.204 4.712-7.848 5.986-12.276 2.911-10.118 5.846-20.732 3.682-31.035-.647-3.081-1.8-6.153-3.964-8.438-2.165-2.285-5.492-3.645-8.536-2.842-3.601.954-5.84 4.481-7.458 7.836a73.976 73.976 0 0 0-7.31 31.748c-.018 5.114.585 10.476 3.47 14.699zM47.81 212.081c3.991-4.735 4.748-11.643 2.973-17.576-1.776-5.933-5.788-10.981-10.41-15.1a56.042 56.042 0 0 0-18.642-11.001c-2.696-.947-5.539-1.695-8.383-1.424-2.845.273-5.71 1.727-7.036 4.257-1.961 3.743-.08 8.28 1.954 11.983a142.018 142.018 0 0 0 12.243 18.644c3.67 4.732 7.874 9.399 13.467 11.538 5.593 2.137 11.403 1.887 14.367-1.993" fill="#F03D5F"></path><path d="M57.657 283.729c.068.005.18-.845.331-2.384.17-1.735.382-3.916.634-6.51.304-2.738.704-5.998 1.464-9.547.76-3.54 1.946-7.377 3.471-11.27 1.578-3.868 3.504-7.383 5.754-10.196 2.234-2.824 4.832-4.868 7.275-6.046a20.315 20.315 0 0 1 6.127-1.909c1.522-.156 2.374-.277 2.374-.344 0-.069-.852-.079-2.416-.036-1.55.102-3.823.495-6.389 1.661-2.574 1.142-5.33 3.218-7.674 6.1-2.362 2.871-4.358 6.465-5.965 10.403-1.55 3.959-2.72 7.835-3.445 11.452-.722 3.611-1.053 6.907-1.27 9.67a129.798 129.798 0 0 0-.322 6.549c-.034 1.546-.017 2.405.05 2.407z" fill="#17282F"></path><path d="M58.105 278.721c.034-.002.055-.383.064-1.108l-.008-3.165c-.008-2.745-.006-6.719.14-11.628.243-9.816 1.09-20.381 2.721-35.274 1.546-14.007 3.621-30.305 5.81-40.902.47-2.41.943-4.58 1.388-6.477.425-1.905.787-3.545 1.137-4.874l.74-3.076c.158-.706.226-1.083.193-1.091-.032-.009-.164.347-.384 1.037l-.92 3.033c-.407 1.315-.825 2.946-1.301 4.841a143.59 143.59 0 0 0-1.533 6.461c-2.167 9.603-4.46 23.023-6.109 37.953-1.635 14.925-2.373 28.515-2.438 38.357-.058 4.92.047 8.903.172 11.651.08 1.285.142 2.331.194 3.163.055.722.1 1.101.134 1.099z" fill="#17282F"></path><path d="M58.17 252.51c.068-.002.057-1.177-.023-3.306-.122-2.125-.413-5.196-1.012-8.957-.634-3.752-1.52-8.208-2.913-13.05-.603-2.213-2.022-7.517-5.458-15.441-4.526-10.739-10.675-19.517-16.025-24.955-1.255-1.443-2.653-2.485-3.77-3.504-.58-.49-1.09-.977-1.611-1.364l-1.463-1.008c-1.761-1.204-2.747-1.84-2.783-1.782-.159.215 3.943 2.628 9.123 8.139 5.158 5.499 11.137 14.217 15.626 24.864 2.503 5.776 4.25 10.927 5.488 15.3 1.431 4.795 2.381 9.205 3.1 12.92a130.25 130.25 0 0 1 1.316 8.869c.196 2.109.338 3.278.405 3.275zM32.835 298.747l2.627 35.983h46.225l2.627-35.983H32.835zM28.37 284.564v14.183H89.83v-14.183H28.37z" fill="#17282F"></path><path d="M28.37 333.351v3.931h60.444v-3.931H28.37zM34.088 344.203l-2.831-6.92H86.61l-3.302 6.92h-49.22z" fill="#33535F"></path><path d="M83.454 310.507c.01.008-.063.119-.215.33l-.691.916-2.693 3.447-.12.153-.116-.16-6.615-9.151h.38l-6.513 9.222-.204.29-.23-.271-7.723-9.192.445-.006-.425.535-6.907 8.659-.23.288-.214-.301-6.516-9.22.379.019-8.026 9.144-.142.162-.11-.183-2.512-4.222-.644-1.124c-.142-.257-.21-.393-.197-.401.012-.008.103.114.27.358l.712 1.08 2.638 4.145-.25-.02 7.896-9.255.199-.234.18.252c2 2.79 4.21 5.876 6.575 9.179l-.443-.013c2.188-2.753 4.502-5.663 6.891-8.671.146-.185.292-.366.426-.534l.22-.276.225.27 7.703 9.208-.432.017 6.579-9.175.191-.27.19.27 6.475 9.249-.235-.007 2.8-3.358.752-.869c.172-.194.266-.289.277-.28z" fill="#DADBD8"></path><path d="M84.957 298.509c0 .158-11.583.288-25.868.288-14.289 0-25.87-.13-25.87-.288 0-.159 11.581-.287 25.87-.287 14.285 0 25.868.128 25.868.287z" fill="#33535F"></path><path d="M87.291 337.67c0 .16-12.587.287-28.112.287-15.53 0-28.116-.127-28.116-.287 0-.158 12.586-.288 28.116-.288 15.525 0 28.112.13 28.112.288z" fill="#17282F"></path><path d="M528.177 344.855H386.022V209.773c0-9.594 7.777-17.371 17.371-17.371h107.412c9.594 0 17.372 7.777 17.372 17.371v135.082z" fill="#33535F"></path><path d="M516.226 193.18c.164 0 .298 33.939.298 75.796 0 41.87-.134 75.803-.298 75.803-.167 0-.3-33.933-.3-75.803 0-41.857.133-75.796.3-75.796zM446.192 26.897c13.025 18.566 20.618 40.896 21.608 63.551.668 15.276-1.388 31.555 5.861 45.017 10.4 19.312 32.904 18.656 39.794 39.481 2.995 9.056-2.528 28.99-4.018 38.413-1.692 10.71 4.858 19.703 3.167 30.414-1.553 9.817-8.9 16.825-17.726 21.396-7.851 4.067-15.109 4.175-23.279.794-15.564-6.444-28.52-13.246-39.61-25.927-15.569-17.802-20.273-42.451-22.934-65.952a578.863 578.863 0 0 1 3.526-155.909l33.611 8.722z" fill="#17282F"></path><path d="M479.48 268.152s.168-.052.501-.125c.332-.08.835-.156 1.472-.35 1.28-.34 3.16-.95 5.378-2.15 2.205-1.193 4.816-2.949 7.104-5.695 1.13-1.372 2.164-3.01 2.777-4.926.584-1.918.848-4.074.971-6.311.221-4.502-.466-9.428-1.489-14.635-1.001-5.211-2.36-10.773-2.686-16.794-.158-3-.027-6.118.649-9.207.641-3.098 1.758-6.124 2.92-9.165 1.169-3.039 2.399-6.111 3.29-9.33.843-3.213 1.36-6.622.797-9.99-.491-3.372-1.872-6.527-3.727-9.284-1.852-2.772-4.153-5.164-6.512-7.379-4.746-4.427-9.882-8.085-14.269-12.192-8.852-8.153-14.814-17.431-18.581-25.654-1.878-4.126-3.319-7.98-4.278-11.452-.551-1.716-.865-3.367-1.26-4.857l-.808-4.139c-.367-2.508-.632-4.456-.705-5.79-.05-.643-.089-1.145-.116-1.511-.025-.341-.021-.517-.021-.517s.038.172.081.511c.043.367.1.865.176 1.505.112 1.327.414 3.267.814 5.762l.857 4.115c.41 1.481.739 3.122 1.304 4.826.984 3.448 2.448 7.275 4.34 11.369 3.797 8.159 9.759 17.354 18.571 25.426 4.361 4.066 9.505 7.714 14.293 12.17 2.382 2.23 4.716 4.648 6.606 7.475 1.895 2.81 3.322 6.056 3.825 9.529.581 3.472.045 6.975-.813 10.233-.906 3.265-2.148 6.353-3.317 9.385-1.162 3.033-2.275 6.028-2.908 9.071-.67 3.033-.806 6.097-.658 9.064.307 5.951 1.639 11.5 2.623 16.727 1.005 5.223 1.675 10.194 1.424 14.749-.14 2.273-.414 4.427-1.031 6.407-.647 1.971-1.719 3.637-2.883 5.021-2.352 2.774-5.009 4.516-7.251 5.69-2.256 1.177-4.16 1.757-5.458 2.059-1.3.31-2.002.359-2.002.359z" fill="#33535F"></path><path d="m265.653 309.19 55.112-26.176s21.465-104.218 25.524-112.045c4.057-7.827 21.024-14.588 21.024-14.588l-2.843 141.124-5.035 32.552-77.726 7.365-16.056-28.232z" fill="#F03D5F"></path><path d="M218.613 333.878c-.304-.01-1.838.95-.553 3.369 1.286 2.42 10.616 10.421 13.363 7.636 2.746-2.789-1.448-6.19-1.448-6.19l-11.362-4.815z" fill="#F8A58D"></path><path d="M230.37 338.802s11.269 1.421 15.609 3.07c4.713 1.791 10.452.571 14.315-2.048 3.862-2.616 6.114-4.982 6.114-4.982l14.378-.226s6.902-7.154 2.804-17.815c-.715-1.86-1.486-3.331-3.295-5.611-1.706-1.848-4.404-3.345-9.063-4.15l-17.082 3.689s-26.464-1.891-31.167.333c0 0-5.913 3.507-7.743 4.977-.689.555-2.785 7.288 1.518 10.789 0 0-3.746 2.981-1.716 5.653l.972 1.186s-2.519 3.262-1.226 4.681c1.293 1.419 12.616 8.057 16.666 6.474 4.051-1.581.699-5.334-1.084-6.02z" fill="#F8A58D"></path><path d="M219.594 321.008c.012-.031.507.161 1.4.501.892.34 2.188.822 3.813 1.339.812.26 1.707.523 2.676.779.964.263 2.02.471 3.114.825 1.08.36 2.248.869 3.103 1.871.811.968 1.361 2.412.83 3.78-.26.672-.804 1.184-1.399 1.502-.604.312-1.252.46-1.881.525-1.269.12-2.463-.04-3.592-.19-2.258-.345-4.225-.949-5.84-1.521-1.618-.572-2.894-1.114-3.775-1.488-.878-.381-1.356-.608-1.345-.638.013-.031.514.14 1.413.466.9.324 2.193.816 3.814 1.344 1.618.528 3.575 1.094 5.795 1.408 1.107.137 2.294.281 3.48.161.591-.063 1.184-.206 1.711-.479.517-.281.97-.712 1.182-1.267.45-1.122-.011-2.429-.745-3.306-.75-.895-1.848-1.403-2.887-1.756-1.055-.356-2.11-.579-3.081-.861a48.089 48.089 0 0 1-2.678-.839 45.666 45.666 0 0 1-3.778-1.486c-.874-.393-1.343-.641-1.33-.67z" fill="#F68260"></path><path d="M220.604 312.863c.014-.033.506.159 1.392.504.889.342 2.174.836 3.786 1.372a68.577 68.577 0 0 0 5.733 1.645c1.076.274 2.319.496 3.341 1.351.501.423.881 1.045.981 1.73.108.679-.013 1.38-.292 2.01-.566 1.286-1.758 2.11-2.949 2.509-1.205.415-2.459.442-3.592.285-2.282-.342-4.157-1.16-5.777-1.672-1.549-.542-2.832-.991-3.808-1.334-.896-.324-1.387-.519-1.377-.549.01-.031.52.104 1.435.376l3.854 1.191c1.632.475 3.536 1.257 5.727 1.558 1.094.139 2.269.1 3.388-.29 1.105-.377 2.177-1.138 2.669-2.265.519-1.11.349-2.476-.561-3.201-.877-.752-2.066-1-3.142-1.279a59.406 59.406 0 0 1-5.739-1.75 52.2 52.2 0 0 1-3.748-1.518c-.867-.398-1.333-.646-1.321-.673z" fill="#F68260"></path><path d="M226.037 315.189c-.137-.001-.213-1.036-.512-2.264-.291-1.231-.694-2.187-.573-2.25.105-.063.722.843 1.03 2.141.316 1.295.178 2.381.055 2.373z" fill="#F68260"></path><path d="m265.806 315.528-10.047-3.871s-27.898-13.021-28.369-12.317c-.471.706-1.983.63-1.653 4.03.331 3.402 16.589 10.26 17.102 11.438.515 1.178-.343 7.136 5.661 11.404 6.004 4.267 10.337 4.36 10.337 4.36" fill="#F8A58D"></path><path d="M258.838 330.572c0 .007-.081.013-.238.007a7.01 7.01 0 0 1-.695-.068c-.608-.085-1.499-.267-2.61-.626a23.09 23.09 0 0 1-3.893-1.696c-1.442-.808-3.082-1.769-4.626-3.208-1.546-1.421-2.81-3.472-3.425-5.872-.322-1.193-.436-2.489-.592-3.752a2.36 2.36 0 0 0-.099-.431c-.035-.088-.137-.168-.263-.269a9.483 9.483 0 0 0-.817-.528 50.493 50.493 0 0 0-1.768-.981c-2.42-1.289-4.995-2.593-7.594-4.086-1.298-.745-2.605-1.539-3.873-2.442-.629-.459-1.251-.943-1.819-1.518a5.05 5.05 0 0 1-.766-.969c-.096-.195-.195-.39-.231-.626-.049-.226-.038-.41-.059-.618-.033-.801-.006-1.663.43-2.427.214-.381.571-.667.886-.889.159-.112.301-.217.386-.333.029-.027-.024.011.096-.096.129-.079.153-.053.196-.061l.198.014c.107.022.208.045.304.072 1.512.466 2.895 1.073 4.282 1.644a365.23 365.23 0 0 1 7.897 3.463 948.88 948.88 0 0 1 13.257 6.102c.941.432 1.831.882 2.684 1.244l2.456.965c1.524.604 2.841 1.127 3.934 1.558 1.049.425 1.877.761 2.478 1.003.261.111.471.201.641.272.142.064.215.1.212.108-.003.007-.08-.015-.229-.063-.175-.06-.391-.135-.658-.229-.609-.222-1.449-.53-2.512-.921l-3.966-1.485c-.774-.293-1.6-.604-2.474-.933-.875-.36-1.756-.794-2.705-1.218-3.796-1.714-8.298-3.749-13.295-6.007a398.451 398.451 0 0 0-7.898-3.433c-1.376-.564-2.786-1.177-4.228-1.618l-.258-.061-.092-.009-.015-.039-.017-.114-.032-.034c.316.214.079.07.146.122l-.028.036c-.148.196-.331.319-.486.431-.316.226-.583.443-.757.751-.352.607-.4 1.4-.364 2.163.024.412.043.727.232 1.037.188.308.421.603.692.871.534.54 1.14 1.014 1.757 1.465 1.244.889 2.539 1.678 3.829 2.423 2.58 1.49 5.147 2.799 7.567 4.103.605.329 1.201.653 1.781 1 .291.175.577.347.854.559.126.103.304.228.395.446.063.183.101.356.12.52.157 1.318.255 2.55.563 3.721.582 2.338 1.785 4.328 3.279 5.73 1.483 1.414 3.107 2.397 4.522 3.217a23.96 23.96 0 0 0 3.824 1.752c1.092.384 1.968.591 2.567.707.298.058.528.091.683.113.155.022.234.033.234.041zM228.071 331.883c.008-.026.4.049 1.068.311.666.26 1.612.724 2.63 1.52.503.406 1.037.868 1.521 1.475.461.595.932 1.396.81 2.348-.12.96-.94 1.715-1.859 2.01-.95.32-1.979.168-2.923-.091-3.739-1.138-6.993-2.513-9.25-3.714a30.335 30.335 0 0 1-2.601-1.538c-.592-.398-.901-.644-.885-.668.019-.031.361.163.98.511.618.35 1.519.841 2.657 1.398 2.27 1.114 5.534 2.434 9.223 3.556.908.253 1.847.379 2.653.109.808-.256 1.475-.884 1.577-1.635.115-.753-.266-1.481-.691-2.048-.437-.575-.949-1.048-1.421-1.454-1.947-1.606-3.535-2.001-3.489-2.09z" fill="#F68260"></path><path d="M342.442 331.628c-2.529-2.146-2.807-5.342-3.413-8.603-4.989-26.833-9.008-62.295-6.331-89.999 1.591 16.526 21.533 92.362 21.533 92.362-.057.913-.164 2.852-.289 5.174l-11.5 1.066z" fill="#BA2C42"></path><path d="M344.257 309.19c-.122.03-.503-1.987-1.726-5.027-.601-1.524-1.477-3.27-2.59-5.122a39.017 39.017 0 0 0-4.243-5.59 38.799 38.799 0 0 0-5.263-4.646c-1.764-1.249-3.441-2.253-4.915-2.962-2.94-1.446-4.923-1.975-4.885-2.094.012-.04.508.079 1.398.331.449.118.991.281 1.602.529.612.24 1.327.477 2.066.851 1.52.672 3.245 1.653 5.055 2.896a36.609 36.609 0 0 1 5.38 4.689 36.6 36.6 0 0 1 4.276 5.711c1.106 1.898 1.956 3.69 2.512 5.254.32.766.503 1.497.697 2.125.202.627.324 1.181.409 1.636.185.908.267 1.412.227 1.419z" fill="#17282F"></path><path d="M361.469 154.958s-28.871 64.489-28.871 76.327c0 11.841 21.632 94.103 21.632 94.103-.205 3.265-1.047 19.661-1.047 19.661l121.267.414 1.846-26.067-9.465-24.841 9.457-70.222s6.363-40.774 6.931-52.177c.707-14.268-47.622-30.805-46.306-32.781l-8.344-11.17-47.816 38.822-9.446-27.286-11.319 10.7 1.481 4.517z" fill="#F03D5F"></path><path d="M440.883 172.114c-13.123 22.208-37.145 62.679-37.145 62.679l-43.046 49.078s-2.815 24.942 2.816 32.585c5.633 7.644 15.287 12.873 15.287 12.873s11.364 0 25.797-12.068c14.432-12.068 54.259-61.952 54.259-61.952l13.677-16.493s16.302-40.063 13.26-60.452c-1.175-7.861-4.52-11.131-8.987-14.736-11.221-9.056-28.583-3.928-35.918 8.486z" fill="#F03D5F"></path><path d="M477.582 224.893c.009.004-.057.158-.198.455l-.637 1.307a110.868 110.868 0 0 1-2.644 4.93c-2.375 4.239-6.066 10.227-10.898 17.445a496.077 496.077 0 0 1-8.088 11.677c-2.938 4.181-6.355 8.441-9.136 13.448-2.854 4.962-5.305 10.477-8.353 15.948-3.047 5.468-6.643 10.898-10.939 15.974-4.306 5.063-9.176 9.476-14.501 12.818-5.305 3.367-11.092 5.546-16.787 6.502-5.695.984-11.309.663-16.266-.689-2.489-.654-4.785-1.656-6.878-2.791-2.101-1.123-4.012-2.409-5.668-3.836-1.674-1.402-3.116-2.927-4.275-4.521-1.205-1.56-2.087-3.207-2.827-4.774-1.413-3.177-2.008-6.137-2.313-8.548-.245-2.423-.259-4.316-.197-5.594l.084-1.451c.022-.328.039-.496.05-.494.01 0 .014.168.012.497l-.025 1.452c-.023 1.274.029 3.159.307 5.563.339 2.389.962 5.312 2.387 8.436.743 1.54 1.628 3.156 2.827 4.686 1.153 1.56 2.583 3.052 4.242 4.424 1.641 1.396 3.533 2.654 5.615 3.754 2.073 1.11 4.333 2.084 6.79 2.718 4.888 1.312 10.422 1.61 16.044.623 5.621-.959 11.324-3.117 16.566-6.453 5.262-3.311 10.083-7.685 14.357-12.708 4.264-5.038 7.846-10.438 10.883-15.873 3.04-5.437 5.502-10.95 8.387-15.937 2.817-5.037 6.268-9.311 9.211-13.462a525.257 525.257 0 0 0 8.14-11.625c4.872-7.181 8.614-13.127 11.047-17.325a147.764 147.764 0 0 0 2.738-4.871l.69-1.279c.158-.286.245-.432.253-.426z" fill="#17282F"></path><path d="M358.537 281.656c.051.086-.613.461-1.403 1.342-.788.863-1.665 2.319-1.833 4.097-.16 1.778.436 3.372 1.051 4.365.616 1.01 1.2 1.5 1.133 1.575-.034.054-.734-.327-1.484-1.341-.746-.989-1.471-2.701-1.296-4.655.185-1.953 1.212-3.502 2.126-4.337.923-.858 1.683-1.105 1.706-1.046zM366.453 294.687c.008-.02.241.034.674.153.219.057.483.148.802.221l1.113.203c1.676.275 4.192.243 7.099-.659 2.89-.926 6.124-2.704 9.138-5.372 3.018-2.666 5.731-6.222 8.565-9.94 2.826-3.728 5.677-7.236 8.825-9.865 1.561-1.31 3.095-2.472 4.371-3.722 1.276-1.237 2.3-2.579 2.873-3.956 1.078-2.829.353-5.486-.663-6.778-1.061-1.337-2.129-1.468-2.075-1.55.005-.018.235.04.669.193.408.196 1.025.53 1.589 1.212 1.123 1.32 1.959 4.065.874 7.077-.585 1.474-1.627 2.869-2.919 4.156-1.291 1.293-2.827 2.48-4.362 3.789-3.078 2.609-5.882 6.08-8.707 9.809-2.832 3.715-5.577 7.291-8.676 9.99-3.088 2.691-6.408 4.468-9.378 5.361-2.989.871-5.569.834-7.262.486l-1.119-.262c-.318-.093-.58-.203-.794-.276-.425-.16-.644-.252-.637-.27zM446.724 165.293c.016.014-.151.252-.483.694l-1.47 1.912c-1.309 1.634-3.112 4.07-5.308 7.101-4.351 6.088-9.934 14.808-15.317 24.886-5.414 10.064-9.899 19.399-13.328 26.064-1.707 3.337-3.108 6.027-4.119 7.863l-1.17 2.111c-.272.48-.425.727-.443.717-.018-.008.097-.276.336-.772l1.071-2.164 3.947-7.945c3.33-6.709 7.754-16.074 13.18-26.158 5.392-10.097 11.053-18.811 15.5-24.85 2.245-3.006 4.103-5.407 5.47-6.999l1.558-1.843c.363-.417.561-.63.576-.617z" fill="#17282F"></path><path d="M360.006 299.222c-1.576-1.874-2.657-4.087-2.881-6.373.18.131.305.19.347.19.007 0 .011 0 .014-.004.02-.023-.022-.088-.109-.195a18.6 18.6 0 0 0 2.659 1.135 113.56 113.56 0 0 0-.03 5.247z" fill="#BA2C42"></path><path d="M371.199 304.627c-.882 0-1.765-.077-2.64-.237-3.164-.579-6.346-2.542-8.553-5.168-.033-1.806-.017-3.58.03-5.246 2.307.782 4.691 1.094 7.121 1.094l.242-.001c.144.054.306.112.485.164l1.119.262c.683.14 1.509.23 2.45.23 1.391 0 3.028-.196 4.812-.716 2.907-.874 6.15-2.595 9.182-5.192a27.522 27.522 0 0 0 5.732-5.25c-1.087 5.457-3.424 10.79-7.404 14.677-3.345 3.265-7.945 5.383-12.576 5.383zm-.168-9.211a12.22 12.22 0 0 1-1.989-.152l-1.113-.203-.002-.001c2.361-.062 4.762-.401 7.179-.875a27.404 27.404 0 0 0 6.319-2.07c-1.803 1.123-3.602 1.952-5.284 2.49-1.916.595-3.663.811-5.11.811z" fill="#BA2C42"></path><path d="M357.471 293.04c-.041 0-.167-.06-.347-.191a8.38 8.38 0 0 0-.014-.15c.089.048.177.095.266.141.087.108.129.172.109.195-.003.004-.007.005-.014.005zM371.452 295.725c-.941 0-1.767-.089-2.45-.23l-1.119-.261a8.051 8.051 0 0 1-.486-.164c.176-.002.353-.005.529-.01l.002.002 1.113.203c.571.094 1.24.151 1.989.151 1.447 0 3.194-.216 5.11-.811 1.682-.538 3.481-1.366 5.284-2.49a28.157 28.157 0 0 0 4.022-2.297c-3.032 2.596-6.276 4.318-9.182 5.191-1.784.52-3.422.716-4.812.716z" fill="#0F191D"></path><path d="M413.469 278.069c1.284-5.914.253-12.293-2.795-17.516.457-2.462-.289-4.606-1.242-5.726a4.4 4.4 0 0 0-1.334-1.084 8.62 8.62 0 0 0-.876-.966c-.808-4.1-2.344-11.962-2.138-16.136l.002.001c.022 0 .175-.247.442-.718l1.17-2.111a243.87 243.87 0 0 0 2.729-5.159c3.875 7.744 7.348 15.82 8.622 24.384 1.276 8.577.162 17.77-4.58 25.031zm-3.576-17.543c.333-2.239-.249-4.594-1.547-6.446.284.214.594.502.904.893.807 1.026 1.43 2.912 1.113 5.061-.1-.16-.201-.319-.303-.476l-.167.968zm-4.805-23.913c.047-.34.642-1.509 1.376-2.851-.432.87-.778 1.571-1.043 2.107-.197.41-.31.663-.333.744z" fill="#BA2C42"></path><path d="M410.674 260.553a22.996 22.996 0 0 0-.312-.519c.317-2.149-.305-4.034-1.112-5.061a5.05 5.05 0 0 0-.904-.893 9.436 9.436 0 0 0-.248-.337 4.4 4.4 0 0 1 1.334 1.084c.952 1.12 1.699 3.264 1.242 5.726zM405.086 236.642l-.001-.001.003-.028c.023-.082.137-.334.333-.744l1.043-2.108a206.415 206.415 0 0 1 2.943-5.147l.02.04a239.911 239.911 0 0 1-2.728 5.159c-.486.875-.874 1.578-1.171 2.111-.266.471-.419.718-.442.718z" fill="#0F191D"></path><path d="m409.832 260.885.062-.359a8.98 8.98 0 0 1-.062.359zM397.727 329.859c-4.039 0-8.066-.63-11.863-1.905a44.686 44.686 0 0 0 5.325-2.062 39.279 39.279 0 0 0 4.21-.495c5.695-.955 11.482-3.134 16.787-6.502 5.326-3.341 10.195-7.755 14.501-12.818 4.296-5.076 7.892-10.506 10.939-15.974 3.048-5.471 5.499-10.986 8.353-15.947 2.781-5.008 6.198-9.267 9.136-13.449a544.257 544.257 0 0 0 4.142-5.891l10.495-12.656c-7.604 17.174-17.844 35.44-26.525 50.753-6.874 12.122-14.276 24.796-26.303 31.836-5.777 3.383-12.503 5.11-19.197 5.11zm-5.163-4.625c2.364-1.174 4.95-2.684 7.693-4.629 12.828-4.245 24.335-12.592 31.934-23.783 2.637-3.884 4.834-7.269 6.884-10.652a139.272 139.272 0 0 1-1.961 3.648c-3.037 5.435-6.619 10.835-10.883 15.874-4.274 5.022-9.095 9.396-14.357 12.707-5.242 3.337-10.945 5.494-16.566 6.454-.917.16-1.833.288-2.744.381zm56.102-56.425a158.752 158.752 0 0 1 2.117-3.532c1.415-1.733 2.685-3.297 3.777-4.646-1.865 2.621-3.925 5.292-5.894 8.178z" fill="#BA2C42"></path><path d="M385.866 327.953a33.545 33.545 0 0 1-7.123-3.351l.392.106c3.007.821 6.256 1.26 9.617 1.26.808 0 1.621-.025 2.438-.076a44.59 44.59 0 0 1-5.324 2.061zm2.763-2.516c-3.273 0-6.435-.423-9.363-1.208a27.091 27.091 0 0 1-1.976-.594l-.028-.02c1.273.085 2.548.127 3.823.127 6.507 0 12.994-1.093 19.174-3.138-2.743 1.945-5.329 3.456-7.693 4.63-1.325.136-2.64.203-3.937.203zm62.156-60.16c7.551-12.265 20.049-29.558 23.018-33.64-2.435 4.188-6.142 10.072-10.949 17.157a522.974 522.974 0 0 1-8.292 11.837 1417.202 1417.202 0 0 1-3.777 4.646zm8.474-10.462a453.202 453.202 0 0 0 3.946-5.785c4.832-7.218 8.523-13.206 10.898-17.445l.094-.167a221.632 221.632 0 0 1-4.443 10.742l-10.495 12.655z" fill="#BA2C42"></path><path d="M388.753 325.968c-3.362 0-6.611-.439-9.618-1.26l-.391-.106c-.492-.309-.978-.63-1.453-.967.643.22 1.302.42 1.975.594a36.266 36.266 0 0 0 9.364 1.208 38.574 38.574 0 0 0 6.681-.585c5.62-.959 11.323-3.117 16.565-6.453 5.262-3.311 10.084-7.686 14.357-12.708 4.264-5.038 7.847-10.438 10.883-15.873a136.443 136.443 0 0 0 1.962-3.649c2.588-4.273 4.942-8.544 7.645-13.82a80.502 80.502 0 0 1 1.946-3.54c1.968-2.886 4.028-5.557 5.894-8.178l.151-.212a525.257 525.257 0 0 0 8.14-11.625c4.808-7.085 8.514-12.969 10.95-17.157.418-.575.648-.887.648-.887l-.254.668-.094.167c-2.375 4.239-6.066 10.227-10.898 17.445a474.973 474.973 0 0 1-3.946 5.785 525.629 525.629 0 0 1-4.143 5.891c-2.938 4.182-6.354 8.442-9.136 13.449-2.854 4.962-5.305 10.477-8.353 15.948-3.047 5.468-6.642 10.898-10.939 15.974-4.306 5.063-9.175 9.476-14.501 12.818-5.304 3.367-11.091 5.546-16.787 6.502a39.505 39.505 0 0 1-4.21.495c-.818.051-1.631.076-2.438.076z" fill="#0F191D"></path><path d="M377.263 323.615a.484.484 0 0 0-.037-.002l-.048-.017-1.089-.852c.386.301.776.59 1.174.871z" fill="#BA2C42"></path><path d="m377.225 323.613-.03-.002-.019-.016.049.018z" fill="#0F191D"></path><path d="M353.183 345.048c-.013-.001-.019-.123-.018-.359.004-.282.011-.625.019-1.049l.144-3.978c.161-3.494.385-8.393.654-14.286l.011.081a1201.155 1201.155 0 0 1-6.971-24.271c-3.31-11.965-6.103-22.854-7.981-30.768-.938-3.959-1.67-7.167-2.128-9.396-.217-1.071-.392-1.926-.523-2.566-.114-.588-.163-.9-.142-.904.02-.004.11.297.259.877l.633 2.542 2.311 9.346c1.983 7.884 4.838 18.749 8.147 30.709a2106.08 2106.08 0 0 0 6.869 24.29l.013.044-.003.039-.865 14.278c-.116 1.668-.212 2.999-.28 3.973l-.091 1.042c-.026.237-.044.356-.058.356zM474.503 162.937c-.034.092-1.24-.335-3.232-.829a38.316 38.316 0 0 0-7.915-1.094 38.31 38.31 0 0 0-7.968.619c-2.019.373-3.248.728-3.276.635-.013-.04.282-.168.828-.365.544-.204 1.35-.441 2.361-.684 2.019-.488 4.89-.894 8.073-.804 3.181.099 6.022.677 8.008 1.285.994.301 1.786.587 2.318.824.531.23.818.374.803.413zM436.092 141.763c.017.012-.089.217-.307.596l-.977 1.647a247.695 247.695 0 0 1-3.76 5.954 327.762 327.762 0 0 1-13.395 18.982 335.801 335.801 0 0 1-12.217 15.133l-.247.289-.155-.342-4.05-8.882c-.447-1.014-.807-1.835-1.085-2.468-.241-.571-.36-.877-.337-.888.022-.01.183.276.467.827l1.203 2.413 4.237 8.794-.401-.054a430.788 430.788 0 0 0 12.108-15.184c5.489-7.21 10.183-13.941 13.519-18.854l3.916-5.845 1.072-1.586c.251-.358.392-.543.409-.532zM464.008 326.95c-.165-.018.362-5.979 1.176-13.313.813-7.336 1.604-13.266 1.769-13.249.163.018-.363 5.978-1.176 13.315-.813 7.334-1.605 13.266-1.769 13.247zM380.884 325.388c.164-.017.778 4.463 1.369 10.006.591 5.544.937 10.052.773 10.069-.164.018-.776-4.461-1.368-10.006-.592-5.543-.937-10.051-.774-10.069z" fill="#17282F"></path><path d="M442.225 194.215c-.151-.95-1.464-1.471-2.226-.884l-.078.063c-.717.641-.444 2.029.462 2.352.905.321 1.993-.583 1.842-1.531zM430.25 165.026c-.151-.948-1.466-1.471-2.228-.884l-.076.064c-.717.641-.445 2.029.46 2.351.906.323 1.994-.581 1.844-1.531zM402.767 188.53c-.151-.95-1.466-1.471-2.227-.885l-.077.064c-.717.641-.444 2.029.461 2.351.906.323 1.995-.581 1.843-1.53zM373.059 176.727c-.151-.95-1.466-1.471-2.227-.884l-.077.064c-.717.64-.444 2.028.461 2.351.906.323 1.995-.581 1.843-1.531zM367.803 165.094c-.15-.95-1.465-1.473-2.227-.885l-.077.064c-.716.64-.444 2.029.461 2.351.905.323 1.994-.581 1.843-1.53zM370.086 151.65c-.151-.95-1.467-1.472-2.227-.884l-.077.064c-.717.64-.446 2.028.46 2.351.905.323 1.994-.581 1.844-1.531zM353.631 170.141c-.15-.95-1.465-1.471-2.227-.884l-.077.063c-.716.641-.444 2.029.461 2.352.906.321 1.995-.582 1.843-1.531zM391.744 175.473c-.152-.949-1.465-1.472-2.227-.884l-.077.064c-.718.64-.444 2.028.461 2.351.906.323 1.993-.581 1.843-1.531zM359.477 199.437c-.15-.95-1.465-1.471-2.227-.885l-.077.064c-.716.641-.445 2.029.461 2.352.905.322 1.994-.582 1.843-1.531zM329.94 268.368c-.152-.948-1.467-1.471-2.227-.883l-.077.065c-.716.639-.445 2.028.461 2.349.905.324 1.994-.58 1.843-1.531zM340.479 228.614c-.15-.95-1.465-1.471-2.227-.884l-.077.063c-.716.641-.445 2.029.461 2.351.905.323 1.994-.581 1.843-1.53zM418.16 158.803c-.152-.949-1.465-1.471-2.227-.883l-.077.063c-.718.641-.444 2.029.461 2.351.906.323 1.993-.581 1.843-1.531zM455.232 237.966c-.15-.949-1.465-1.471-2.226-.884l-.076.064c-.718.641-.446 2.03.459 2.351.906.323 1.994-.581 1.843-1.531zM469.679 169.841c-.152-.95-1.467-1.471-2.228-.884l-.076.065c-.718.64-.446 2.027.459 2.35.907.323 1.994-.581 1.845-1.531zM464.007 214.455c-.152-.95-1.466-1.472-2.227-.885l-.077.065c-.718.64-.445 2.028.46 2.351.907.321 1.994-.583 1.844-1.531zM431.612 246.668c-.151-.949-1.465-1.471-2.226-.884l-.078.064c-.717.641-.445 2.028.461 2.351.905.323 1.994-.581 1.843-1.531zM432.976 219.852c-.152-.949-1.467-1.471-2.228-.884l-.076.063c-.718.641-.446 2.03.459 2.352.907.323 1.994-.582 1.845-1.531zM452.52 170.074c-.15-.95-1.464-1.472-2.225-.884l-.078.064c-.717.64-.444 2.028.461 2.351.906.323 1.994-.581 1.842-1.531zM426.209 144.092c-.15-.949-1.464-1.472-2.225-.884l-.079.064c-.716.64-.444 2.029.461 2.351.907.323 1.995-.581 1.843-1.531zM425.255 185.975c-.15-.949-1.464-1.472-2.227-.884l-.077.064c-.716.64-.444 2.028.461 2.35.906.324 1.995-.581 1.843-1.53zM391.668 313.742c-.151-.948-1.467-1.471-2.227-.883l-.077.063c-.717.641-.446 2.029.46 2.351.905.324 1.994-.581 1.844-1.531zM353.137 292.732c-.15-.949-1.465-1.471-2.225-.883l-.078.063c-.717.641-.446 2.028.46 2.351.906.323 1.994-.581 1.843-1.531zM321.985 303.031c-.152-.951-1.466-1.472-2.227-.885l-.077.063c-.718.641-.446 2.03.46 2.351.906.323 1.994-.581 1.844-1.529zM318.65 320.773c-.152-.949-1.467-1.471-2.227-.884l-.077.064c-.716.641-.445 2.028.461 2.351.905.323 1.994-.581 1.843-1.531zM347.857 326.718c-.151-.95-1.465-1.472-2.227-.885l-.077.065c-.717.64-.444 2.028.461 2.351.906.321 1.994-.583 1.843-1.531zM338.09 286.982c-.149-.95-1.464-1.471-2.226-.884l-.077.065c-.716.64-.444 2.027.461 2.35.906.323 1.994-.58 1.842-1.531zM373.927 297.079c-.151-.95-1.466-1.472-2.228-.885l-.077.065c-.716.64-.444 2.028.461 2.35.906.323 1.994-.58 1.844-1.53zM459.113 286.916c-.15-.949-1.465-1.471-2.225-.885l-.077.064c-.718.641-.446 2.03.46 2.351.905.323 1.993-.581 1.842-1.53zM406.406 337.422c-.151-.95-1.466-1.473-2.227-.885l-.077.065c-.717.639-.445 2.028.46 2.349.906.324 1.995-.58 1.844-1.529zM428.886 309.307c-.15-.949-1.464-1.471-2.226-.885l-.078.065c-.716.641-.444 2.028.462 2.35.905.323 1.994-.581 1.842-1.53zM442.239 332.172c-.151-.949-1.465-1.471-2.226-.884l-.077.064c-.718.641-.446 2.029.46 2.35.906.323 1.994-.581 1.843-1.53zM405.084 212.43c-.149-.949-1.465-1.472-2.225-.885l-.077.066c-.717.639-.446 2.027.46 2.349.905.323 1.993-.579 1.842-1.53zM435.318 270.803c-.15-.951-1.467-1.472-2.227-.885l-.077.064c-.716.64-.445 2.028.461 2.352.905.322 1.993-.582 1.843-1.531zM425.513 292.913c-.15-.949-1.465-1.472-2.227-.884l-.077.065c-.716.639-.444 2.028.461 2.35.906.323 1.993-.58 1.843-1.531zM457.75 310.671c-.15-.95-1.465-1.471-2.227-.884l-.077.065c-.716.64-.444 2.027.461 2.35.906.323 1.995-.581 1.843-1.531zM369.539 336.311c-.15-.951-1.464-1.473-2.226-.886l-.078.065c-.716.64-.443 2.028.462 2.352.905.322 1.994-.582 1.842-1.531zM296.033 329.603c-.15-.949-1.464-1.472-2.226-.885l-.078.064c-.716.642-.443 2.03.462 2.352.906.322 1.994-.582 1.842-1.531zM360.764 317.53c-.15-.949-1.465-1.471-2.227-.883l-.077.063c-.716.641-.444 2.028.461 2.351.906.322 1.993-.581 1.843-1.531zM298.758 304.395c-.151-.95-1.465-1.473-2.226-.884l-.078.064c-.717.639-.443 2.028.462 2.35.906.323 1.993-.581 1.842-1.53zM402.357 262.71c-.149-.95-1.466-1.472-2.226-.886l-.077.065c-.716.64-.445 2.028.461 2.352.905.321 1.992-.582 1.842-1.531zM380.677 199.437c-.151-.95-1.466-1.471-2.227-.885l-.076.064c-.718.641-.445 2.029.46 2.352.906.322 1.993-.582 1.843-1.531zM375.26 254.306c-.15-.948-1.465-1.471-2.226-.883l-.077.063c-.717.641-.446 2.029.46 2.351.905.323 1.995-.581 1.843-1.531zM366.439 236.409c-.152-.95-1.465-1.471-2.226-.885l-.078.065c-.716.641-.445 2.028.462 2.351.905.322 1.992-.582 1.842-1.531zM405.449 292.667c-.151-.95-1.466-1.473-2.227-.886l-.077.065c-.717.64-.445 2.028.46 2.351.906.322 1.995-.581 1.844-1.53zM377.951 281.627c-.151-.949-1.466-1.472-2.226-.884l-.077.065c-.717.639-.446 2.028.461 2.349.905.324 1.992-.58 1.842-1.53zM389.72 221.039c-.149-.949-1.464-1.471-2.226-.883l-.077.064c-.716.64-.445 2.028.461 2.351.905.323 1.994-.581 1.842-1.532zM347.857 263.941c-.151-.95-1.465-1.471-2.227-.886l-.077.065c-.717.64-.444 2.029.461 2.35.906.323 1.994-.581 1.843-1.529zM412.475 244.249c-.15-.95-1.465-1.471-2.226-.884l-.078.064c-.716.64-.445 2.029.462 2.35.905.324 1.993-.58 1.842-1.53zM472.406 192.851c-.151-.95-1.466-1.473-2.228-.885l-.075.065c-.718.639-.446 2.027.459 2.351.906.322 1.994-.581 1.844-1.531zM448.072 153.93c-.152-.95-1.466-1.473-2.226-.886l-.078.065c-.717.641-.445 2.029.461 2.351.905.322 1.993-.582 1.843-1.53zM400.911 158.803c-.151-.949-1.466-1.471-2.228-.883l-.075.063c-.718.641-.446 2.029.459 2.351.906.323 1.995-.581 1.844-1.531z" fill="#fff"></path><path d="M352.808 19.096c-9.046 5.756-12.657 17.817-10.932 24.945.869 3.593 2.5 7.208 1.788 10.835-.614 3.134-2.868 5.641-4.555 8.354-5.624 9.046-4.628 21.707 2.342 29.762 6.971 8.056 19.356 10.863 29.118 6.596" fill="#17282F"></path><path d="M347.456 66.168c-22.005-48.396 30.335-72.71 58.896-64.645 26.84 7.581 38.288 20.94 42.705 38.891 4.419 17.96 4.207 37.41-2.831 54.516-3.471 8.433-9.721 17.003-18.78 18.056" fill="#17282F"></path><path d="M373.236 184.36c-.379-23.123-.648-54.887-.656-54.756 0 0-19.877-3.299-23.995-29.232-2.048-12.896-1.4-34.041-.31-51.326.98-15.558 11.288-34.646 26.789-33.006l48.405 12.235a9.12 9.12 0 0 1 8.161 9.25l-3.154 100.122" fill="#F8A58D"></path><path d="M356.928 64.882c-.081 1.744 1.328 3.253 3.149 3.373 1.817.118 3.361-1.196 3.442-2.941.082-1.745-1.327-3.255-3.144-3.374-1.821-.12-3.364 1.197-3.447 2.942zM391.291 64.882c-.083 1.745 1.327 3.254 3.149 3.372 1.817.12 3.36-1.195 3.442-2.94.081-1.745-1.327-3.255-3.145-3.374-1.82-.12-3.364 1.198-3.446 2.942zM353.349 58.841c.397.447 2.977-1.333 6.555-1.204 3.574.077 6.137 2.004 6.54 1.579.198-.188-.197-.985-1.313-1.854-1.096-.866-2.989-1.736-5.218-1.8-2.228-.063-4.129.695-5.234 1.5-1.129.807-1.527 1.578-1.33 1.78zM387.311 59.696c.416.432 2.93-1.444 6.507-1.45 3.574-.058 6.208 1.77 6.595 1.331.19-.195-.229-.976-1.381-1.804-1.129-.823-3.053-1.621-5.282-1.603-2.229.023-4.101.852-5.176 1.696-1.094.85-1.465 1.637-1.263 1.83zM375.05 87.254c.017-.203-2.209-.587-5.812-1.048-.915-.094-1.779-.276-1.933-.9-.216-.661.166-1.645.609-2.709.86-2.21 1.759-4.528 2.704-6.958 3.752-9.908 6.469-18.055 6.069-18.202-.4-.149-3.767 7.763-7.521 17.671-.902 2.443-1.767 4.772-2.588 7-.347 1.038-.941 2.217-.475 3.587.246.683.917 1.178 1.504 1.335.584.18 1.1.189 1.551.216 3.627.196 5.878.212 5.892.008z" fill="#17282F"></path><path d="M372.579 129.604s17.445 1.126 34.73-9.263c0 0-8.776 18.041-34.73 15.615v-6.352z" fill="#F68260"></path><path d="M386.429 54.607c.354.973 3.926.51 8.125 1.017 4.211.422 7.595 1.65 8.152.778.249-.417-.342-1.332-1.71-2.274-1.357-.94-3.522-1.835-6.043-2.117-2.52-.275-4.83.125-6.358.748-1.541.621-2.318 1.385-2.166 1.848zM354.176 49.846c.63.812 3.096-.03 6.061-.07 2.963-.143 5.473.547 6.052-.304.254-.413-.142-1.227-1.239-1.996-1.081-.767-2.89-1.393-4.927-1.332-2.036.064-3.801.801-4.833 1.634-1.047.835-1.392 1.672-1.114 2.068z" fill="#17282F"></path><path d="M427.182 71.665c.379-.184 13.881-6.155 14.039 9.371.159 15.525-15.463 12.482-15.494 12.037-.031-.445 1.455-21.408 1.455-21.408z" fill="#F8A58D"></path><path d="M430.412 87.143c.067-.05.272.187.731.391a2.71 2.71 0 0 0 2.023.021c1.634-.619 2.988-3.236 3.034-6.035a8.925 8.925 0 0 0-.796-3.866c-.486-1.131-1.228-1.917-2.056-2.054-.823-.182-1.403.318-1.588.757-.205.436-.102.745-.184.772-.042.04-.335-.256-.218-.899.062-.308.239-.676.602-.978.368-.308.916-.468 1.492-.411 1.197.07 2.286 1.16 2.849 2.378a9.183 9.183 0 0 1 .982 4.318c-.068 3.13-1.639 6.073-3.877 6.745-1.09.295-2.004-.024-2.479-.386-.483-.378-.569-.724-.515-.753z" fill="#F68260"></path><path d="M369.895 8.382c-8.638 4.463-12.194 22.136-8.62 31.178 3.574 9.041 13.205 13.458 22.703 15.538 9.497 2.081 18.809 2.327 28.176-.278.651 6.3 4.427 12.766 10.538 14.428 8.091 2.2 16.248-5.21 18.047-13.399 1.802-8.19-.897-16.624-3.562-24.573" fill="#17282F"></path><path d="M438.397 64.719c.038.048-.388.451-1.196 1.13a42.501 42.501 0 0 1-3.581 2.702c-1.581 1.046-3.577 2.21-6.038 2.922-2.428.702-5.403.958-8.239-.12-2.828-1.077-4.917-3.22-6.235-5.392-1.337-2.2-1.937-4.46-2.235-6.34a22.85 22.85 0 0 1-.243-4.495c.05-1.06.144-1.64.202-1.638.171-.004-.014 2.36.665 6.023.368 1.814 1.011 3.963 2.313 6.013 1.284 2.035 3.261 4.008 5.852 4.989 2.59.989 5.369.792 7.7.163 2.353-.632 4.321-1.699 5.917-2.66 3.171-1.984 5.026-3.426 5.118-3.297z" fill="#17282F"></path><path d="M376.108 97.226c.521 1.321 1.055 2.662 1.929 3.78.873 1.12 2.153 2.006 3.57 2.073 1.511.072 2.969-.822 3.812-2.079.844-1.256 1.131-2.823 1.062-4.333-.061-1.368-.686-2.999-2.045-3.16-.565-.067-1.122.151-1.65.366l-7.139 2.895" fill="#F68260"></path><path d="M378.961 103.101c.036-.225 1.604.412 3.808-.472 1.067-.43 2.235-1.279 2.879-2.615.642-1.32.771-3.108.093-4.671-.157-.39-.393-.75-.622-1.067-.283-.296-.231-.284-.539-.238-.292.078-.761.3-1.144.45l-1.174.477a173.391 173.391 0 0 1-4.079 1.595c-2.339.874-3.82 1.332-3.887 1.17-.07-.162 1.285-.914 3.532-2 1.125-.542 2.471-1.168 3.974-1.846.378-.169.763-.34 1.155-.517.417-.17.735-.358 1.305-.537.279-.078.674-.123 1.059.03.378.154.612.41.788.623.318.425.599.862.801 1.354.841 1.952.638 4.112-.217 5.712-.874 1.635-2.361 2.555-3.623 2.931-1.286.395-2.392.299-3.095.12-.709-.187-1.042-.429-1.014-.499z" fill="#17282F"></path><path d="M444.592 61.038c-1.59-.112-14.413 1.547-13.403 25.385.943 22.263 16.563 17.36 21.547 8.979 4.72-7.941 7.448-33.27-8.144-34.364z" fill="#33535F"></path><path d="M452.519 63.853c-.016.001-.036-.214-.059-.627l-.076-1.815-.19-6.79-.468-23.377.288.283-6.612.01.298-.305.15 5.546.601 24.248.006.205-.199.046c-2.975.697-5.327 2.427-6.809 4.384-1.511 1.96-2.261 4.041-2.721 5.75a23.963 23.963 0 0 0-.7 4.072c-.042.475-.065.841-.078 1.087-.015.247-.023.375-.036.375-.013 0-.031-.127-.042-.375a12.97 12.97 0 0 1 .004-1.097c.04-.959.149-2.375.572-4.132.423-1.744 1.146-3.88 2.674-5.925 1.498-2.043 3.94-3.882 7.019-4.627l-.193.25c-.199-6.97-.439-15.3-.696-24.245l-.146-5.546-.008-.306.304.002 6.612.008h.284l.003.283.257 23.381.022 6.792-.02 1.817c-.009.413-.022.628-.041.628z" fill="#33535F"></path><path d="M403.222 221.273c-.006-.007.091-.114.286-.315.191-.206.496-.49.867-.892a43.185 43.185 0 0 0 3.1-3.679c1.27-1.669 2.693-3.82 4.189-6.429 1.499-2.607 3.053-5.678 4.746-9.112a482.576 482.576 0 0 0 17.521-39.886l1.543-4.048c.517-1.364 1.047-2.769 1.846-4.071.787-1.305 1.93-2.458 3.335-3.17.699-.359 1.481-.631 2.336-.595a2.39 2.39 0 0 1 1.221.444c.368.265.588.652.774 1.031l.038.078-.021.09c-.113.524-.279 1.061-.616 1.531-.331.473-.869.82-1.434.938-1.146.234-2.238-.13-3.204-.587-2.075-.865-3.305-3.325-2.837-5.564.216-1.128.919-2.156 1.864-2.805a5.227 5.227 0 0 1 3.264-.93c1.136.071 2.381.536 3.014 1.66.325.552.289 1.364-.118 1.874-.383.52-.908.832-1.457 1.063-1.941.771-4.274.092-5.503-1.56-.616-.825-.873-1.899-.746-2.896a4.938 4.938 0 0 1 1.194-2.706c.653-.755 1.565-1.303 2.585-1.431 1.001-.099 2.068.182 2.793.959.364.385.566.93.55 1.468-.004.548-.281 1.068-.662 1.415-.768.699-1.823.949-2.81.757-1.024-.216-1.759-.986-2.235-1.798-.475-.831-.709-1.748-.84-2.649-.23-1.792-.206-3.681.61-5.357.436-.81 1.041-1.565 1.957-1.934.894-.357 1.881-.264 2.727.086.821.359 1.641 1.104 1.683 2.126.072.996-.626 1.884-1.458 2.244-.821.392-1.83.41-2.641-.039-.805-.433-1.352-1.202-1.632-2.015-.306-.806-.284-1.737-.158-2.513.105-.805.252-1.61.532-2.384.267-.765.733-1.528 1.392-2.03a5.557 5.557 0 0 1 2.164-1.073c.383-.083.827-.161 1.264-.015.415.137.761.382 1.051.669.287.291.522.631.676 1.018.157.376.214.853.039 1.269-.339.871-1.309 1.155-2.054 1.137-.787.01-1.545-.303-2.157-.724-1.232-.873-2.024-2.222-2.306-3.615-.308-1.389-.149-2.863.482-4.09.331-.603.734-1.167 1.29-1.579a4.31 4.31 0 0 1 1.837-.791c.651-.105 1.356-.063 1.953.274.587.332 1.021.953 1.054 1.63.045 1.363-1.011 2.435-2.164 2.755-1.235.326-2.419-.342-3.122-1.174-.73-.847-1.108-1.908-1.179-2.939-.098-2.09.725-3.849 1.125-5.497l1.279-4.522 1.791-6.249c.204-.693.364-1.232.48-1.62.11-.364.183-.547.183-.547s-.034.194-.126.564l-.422 1.637-1.682 6.278-1.228 4.533c-.392 1.664-1.181 3.435-1.066 5.4.072.962.436 1.953 1.115 2.728.644.761 1.734 1.329 2.753 1.041.997-.268 1.925-1.271 1.863-2.358-.027-.532-.38-1.034-.856-1.3-.485-.273-1.097-.315-1.681-.217a3.878 3.878 0 0 0-1.644.719c-.486.359-.862.888-1.159 1.436-.574 1.125-.719 2.498-.425 3.79.266 1.298 1.012 2.535 2.127 3.318.568.381 1.199.639 1.887.632.662.01 1.381-.246 1.591-.831.232-.554-.139-1.272-.61-1.749a2.235 2.235 0 0 0-.847-.542c-.293-.103-.64-.048-.996.028-1.402.363-2.737 1.317-3.178 2.785-.256.715-.397 1.488-.497 2.272-.124.801-.129 1.535.136 2.268.25.713.724 1.364 1.384 1.713.64.357 1.469.347 2.148.021.687-.308 1.191-.982 1.136-1.716-.021-.729-.643-1.329-1.35-1.64-.72-.297-1.576-.37-2.294-.076-.71.274-1.287.956-1.659 1.667-.729 1.494-.773 3.305-.545 5.015.125.856.349 1.707.773 2.442.415.718 1.069 1.361 1.85 1.515.785.16 1.697-.066 2.282-.61.62-.523.626-1.481.079-2.062-.536-.591-1.46-.856-2.289-.763-.834.103-1.633.569-2.202 1.231-1.157 1.3-1.492 3.434-.414 4.858 1.037 1.42 3.146 2.031 4.797 1.36.465-.192.924-.479 1.195-.86.28-.373.299-.833.077-1.244-.462-.848-1.521-1.29-2.521-1.343-2.035-.142-4.157 1.258-4.51 3.255-.406 1.972.658 4.154 2.51 4.916.898.436 1.915.739 2.817.547.93-.168 1.437-1.069 1.609-2.006l.019.166c-.268-.651-.813-1.085-1.498-1.123-.682-.031-1.393.196-2.034.529-1.306.662-2.363 1.719-3.114 2.957-.764 1.238-1.288 2.609-1.806 3.97l-1.554 4.049a459.618 459.618 0 0 1-6.207 15.165 457.408 457.408 0 0 1-11.493 24.689c-1.716 3.423-3.298 6.488-4.827 9.092-1.526 2.604-2.981 4.748-4.281 6.404-2.602 3.324-4.414 4.764-4.414 4.764z" fill="#fff"></path><path d="M458.509 49.86c-.103.021.049-1.626-1.045-4.247-1.061-2.572-3.669-6.064-8.243-8.257-2.271-1.072-4.992-1.75-7.947-1.943-2.958-.194-6.142.09-9.425.72-6.583 1.21-13.496 4.051-21.238 5.218a43.164 43.164 0 0 1-11.372-.011c-3.654-.514-7.075-1.55-10.222-2.773-6.261-2.584-11.308-6.189-14.885-9.83-3.596-3.633-5.919-7.108-7.211-9.646a12.807 12.807 0 0 1-.845-1.693l-.558-1.27a291.36 291.36 0 0 1-.332-.786c-.07-.178-.104-.271-.093-.276.009-.003.061.083.15.253l.385.76.606 1.24c.228.498.511 1.06.891 1.66 1.346 2.489 3.705 5.898 7.305 9.456 3.578 3.569 8.597 7.097 14.792 9.621 3.117 1.194 6.495 2.206 10.099 2.703 3.602.481 7.385.5 11.205 0 7.638-1.146 14.562-3.97 21.221-5.168 3.318-.623 6.549-.892 9.561-.673 3.01.219 5.779.933 8.096 2.057 4.654 2.294 7.262 5.904 8.275 8.55.55 1.33.693 2.45.799 3.19l.038.855c.006.192.004.29-.007.29z" fill="#33535F"></path><path d="M442.885 102.059c-.007.018-.161-.026-.449-.131a7.086 7.086 0 0 1-1.191-.617c-.986-.615-2.298-1.768-3.361-3.585-1.077-1.808-1.791-4.254-2.062-6.99-.264-2.738-.265-5.755-.011-8.907a54.44 54.44 0 0 1 1.475-8.784c.669-2.647 1.468-5.026 2.565-6.818 1.079-1.802 2.386-2.96 3.38-3.565a7.023 7.023 0 0 1 1.198-.605c.287-.105.444-.143.451-.126.022.052-.588.267-1.519.924-.929.649-2.146 1.813-3.146 3.585-1.015 1.764-1.761 4.102-2.393 6.739a57.321 57.321 0 0 0-1.414 8.7c-.253 3.114-.269 6.112-.037 8.803.237 2.687.889 5.065 1.88 6.835.982 1.784 2.203 2.943 3.124 3.601.924.671 1.535.886 1.51.941z" fill="#17282F"></path><path d="m392.585 105.359-11.778 2.312a3.278 3.278 0 0 1-3.847-2.584l-.085-.433a3.276 3.276 0 0 1 2.584-3.845l11.779-2.312a3.274 3.274 0 0 1 3.845 2.583l.086.434a3.276 3.276 0 0 1-2.584 3.845z" fill="#33535F"></path><path d="m393.485 100.264 54.491-17.094a2.569 2.569 0 1 1 1.439 4.933l-55.722 15.053-.208-2.892z" fill="#33535F"></path><path d="M433.762 92.75c-.012-.04.631-.264 1.804-.635l4.982-1.517c2.091-.647 4.658-1.327 7.373-2.217.656-.254 1.292-.595 1.785-1.098.473-.49.78-1.197.767-1.896a1.65 1.65 0 0 0-1.127-1.56c-.681-.227-1.496-.126-2.277.07-6.334 2.037-12.064 3.88-16.337 5.256l-4.976 1.536c-1.179.35-1.837.527-1.851.488-.012-.04.622-.29 1.778-.708l4.917-1.718c4.172-1.417 9.893-3.376 16.322-5.435.833-.203 1.735-.342 2.622-.05.897.286 1.532 1.208 1.515 2.108a3.29 3.29 0 0 1-.947 2.309c-.58.584-1.296.95-1.993 1.213-2.817.892-5.329 1.507-7.454 2.108-2.05.545-3.747.994-5.035 1.335-1.192.303-1.857.451-1.868.41zM344.662 51.012c1.865 6.549-4.792 12.164-7.135 18.558-2.264 6.183-.336 13.109 2.454 19.073 2.789 5.964 6.461 11.623 7.888 18.051 3.523 15.847-10.807 32.921-8.078 48.924.995 5.829 3.341 11.914 5.377 17.465 2.037 5.552 1.893 10.631 0 16.231-3.097 9.167-8.356 13.489-12.058 22.427-1.895 4.571-1.745 9.69-1.65 14.637.095 4.947.06 10.104-2.141 14.534-2.2 4.432-7.24 7.857-12.017 6.573 5 5.879 14.232 7.636 21.043 4.005 6.285-3.349 9.799-10.154 12.807-16.608 14.565-31.253 22.268-33.891 21.869-68.368l-.441-36.75s-5.454-1.455-8.599-3.623c-16.268-11.228-16.859-31.239-16.731-46.747" fill="#17282F"></path><path d="M377.212 155.618v13.012s-10.009 51.045-13.011 79.402c-3.002 28.359-3.511 35.839-3.511 35.839s7.181 11.202 22.194-7.814c15.013-19.017 17.683-22.02 23.687-22.353 0 0-7.339-79.736-7.006-82.738.334-3.003 2.669-5.673 2.669-5.673l-25.022-9.675zM396.899 126.259s-16.349 21.686-17.683 24.688c-1.335 3.003-2.002 4.671-2.002 4.671l25.022 9.675 24.354-26.689 9.009-23.688-2.669-28.025s-5.34-.333-6.34 4.338-.667 9.008-.667 9.008l-7.476-6.006-12.041-3.67s-2.836 4.672 1.835 7.007c4.671 2.334 6.005 2.334 6.005 2.334l4.201 7.341-1.835 8.224-8.516-7.986a4.882 4.882 0 0 0-6.209-.388l-5.503 4.001-5.158-2.304-10.009 8.795-4.003 3.67s2.669 5.004 8.007 2.669l5.338-2.335 6.34 4.67z" fill="#F8A58D"></path><path d="M377.215 160.01s-.021-.235-.006-.696a24.718 24.718 0 0 1 .789-5.306c.372-1.257.792-2.752 1.757-4.201 3.738-5.747 9.632-13.74 16.976-23.672l.043.294-6.347-4.658.222.025-3.298 1.451c-1.125.468-2.226 1.068-3.515 1.369-1.269.29-2.697.196-3.906-.443-1.226-.606-2.213-1.601-2.937-2.8l-.097-.161.149-.141c4.304-4.039 9.087-8.125 14.002-12.486l.148-.131.171.103 4.442 2.623-.294.008 5.201-3.423c.898-.576 1.721-1.164 2.697-1.742 1.048-.534 2.392-.42 3.346.292 3.302 2.792 6.685 5.648 10.127 8.556l-.476.161c.55-2.473 1.148-5.151 1.75-7.854l.032.213-4.203-7.339.259.151c-.791-.088-1.394-.327-2.074-.56a31.128 31.128 0 0 1-1.964-.81 54.702 54.702 0 0 1-1.948-.922c-.324-.162-.65-.372-.976-.558-.287-.252-.624-.445-.864-.757-.768-.812-1.214-1.958-1.157-3.066.024-1.114.356-2.157.888-3.123l.111-.2.231.07 12.04 3.67.055.018.045.036 7.472 6.007-.474.251a35.506 35.506 0 0 1 .636-8.881c.252-1.473 1.127-2.925 2.434-3.695 1.291-.798 2.771-1.1 4.245-1.073l.24.005.024.25 2.639 28.028.004.058-.02.055-9.05 23.671-.015.037-.025.029-18.911 20.585-5.13 5.54-1.341 1.428c-.304.319-.47.472-.47.472s.136-.18.427-.512l1.298-1.466 5.049-5.615 18.772-20.71-.04.065 8.966-23.703-.016.114-2.699-28.022.263.254c-1.332-.024-2.757.27-3.905.992-1.175.704-1.931 1.948-2.175 3.329a34.988 34.988 0 0 0-.617 8.72l.035.66-.509-.409-7.478-6.001.099.051-12.042-3.667.343-.13c-.468.845-.787 1.846-.802 2.821-.047.986.333 1.939.998 2.65.203.273.516.444.765.672.304.17.583.355.904.514.642.317 1.283.628 1.926.913 1.263.552 2.619 1.137 3.793 1.317l.19.029.07.122 4.2 7.34.057.1-.026.112-1.756 7.851-.106.474-.371-.313-10.087-8.542c-.783-.587-1.892-.683-2.753-.245-.857.508-1.769 1.145-2.64 1.704l-5.205 3.413-.145.096-.149-.089-4.438-2.632.318-.03c-4.92 4.348-9.712 8.424-14.023 12.445l.052-.302c.65 1.083 1.597 2.051 2.714 2.598 1.108.59 2.399.679 3.585.413 1.18-.266 2.302-.86 3.431-1.327 1.122-.49 2.223-.97 3.304-1.439l.12-.053.104.078c2.217 1.64 4.355 3.221 6.329 4.683l.17.126-.126.168c-7.384 9.896-13.333 17.857-17.117 23.545-.958 1.404-1.396 2.884-1.78 4.126a25.124 25.124 0 0 0-.678 3.239 29.396 29.396 0 0 0-.221 2.023l-.055.692z" fill="#F68260"></path><path d="M408.178 131.281c-.121-.018.321-1.77.505-4.611.058-1.411-.022-3.141-.789-4.823-.763-1.684-2.268-3.15-3.985-4.475-3.464-2.673-6.804-4.825-9.26-6.307l-2.934-1.726c-.694-.405-1.075-.639-1.055-.678.018-.036.434.128 1.164.472.73.342 1.773.869 3.035 1.566a76.07 76.07 0 0 1 9.417 6.202c1.741 1.344 3.326 2.893 4.12 4.72.794 1.82.822 3.636.708 5.074-.12 1.454-.382 2.598-.564 3.382-.191.786-.323 1.212-.362 1.204zM425.688 120.871c-.091-.023.151-1.157.425-3.001.274-1.843.535-4.406.514-7.246a47.824 47.824 0 0 0-.637-7.237c-.305-1.84-.566-2.969-.476-2.994.069-.02.477 1.075.89 2.914.417 1.836.793 4.429.822 7.312.02 2.883-.313 5.48-.698 7.324-.383 1.846-.771 2.947-.84 2.928z" fill="#F68260"></path><path d="M540 345.184c0 .165-116.752.3-260.741.3-144.039 0-260.767-.135-260.767-.3 0-.164 116.728-.299 260.767-.299 143.989 0 260.741.135 260.741.299z" fill="#17282F"></path><path d="M392.434 345.463s7.789-13.302 24.564-13.871c16.775-.571 25.162 13.871 25.162 13.871h-49.726z" fill="#33535F"></path><path d="M424.579 345.048c-.123 0-.153-.983-.491-2.505-.332-1.518-1.066-3.561-2.394-5.524-1.335-1.957-2.965-3.394-4.255-4.262-1.288-.875-2.192-1.264-2.146-1.378.025-.076 1.009.146 2.422.94 1.407.784 3.185 2.234 4.586 4.288 1.393 2.059 2.085 4.246 2.297 5.843.218 1.606.059 2.603-.019 2.598z" fill="#17282F"></path><path d="m382.047 344.855-.001-.107a6.441 6.441 0 0 0-6.44-6.334H232.8a6.44 6.44 0 0 0-6.441 6.441h155.688z" fill="#33535F"></path><path d="M108.667 94.706c0 3.004 2.25 182.354 2.25 182.354l133.207 32.05h11.016l-7.011-250.388h-10.015L108.667 94.706z" fill="#17282F"></path><path d="m136.837 269.553-41.284 75.666h37.734c-6.749-.672 59.754 0 59.754 0l-59.754-15.843 18.684-42.439-1.594-17.384h-13.54z" fill="#17282F"></path><path d="m137.757 283.518-4.472-141.025 40.563-3.889 5 150.578-14.49.736-26.601-6.4z" fill="#17282F"></path><path d="M184.52 294.768s-.017-.221-.025-.655l-.025-1.933-.048-7.494c-.018-6.554-.047-16.081-.082-28.049l-.107-96.822.286.286-47.862.012.3-.298v6.507l-.048 103.231v.063l-.031.055c-12.423 22.778-22.729 41.671-29.937 54.889l-8.383 15.288-2.221 4.01c-.507.906-.784 1.361-.784 1.361s.232-.481.716-1.397l2.155-4.047 8.263-15.353 29.75-54.99-.03.121-.048-103.231V159.515h.298l47.862.013h.287v.287l-.107 96.822c-.035 11.968-.064 21.495-.082 28.049l-.048 7.494-.025 1.933c-.008.434-.024.655-.024.655z" fill="#33535F"></path><path d="M151.972 286.937c.151.067-5.594 13.348-12.831 29.662-7.238 16.319-13.226 29.487-13.377 29.422-.151-.068 5.593-13.347 12.83-29.665 7.237-16.312 13.226-29.486 13.378-29.419zM244.125 309.11s-.021-.219-.033-.645l-.038-1.894-.088-7.278c-.047-6.321-.19-15.466-.411-26.765-.431-22.599-1.451-53.808-2.703-88.275-1.252-34.477-2.204-65.697-2.526-88.301-.169-11.302-.246-20.45-.222-26.771l.024-7.278.022-1.892c.008-.428.027-.646.027-.646s.022.218.034.645l.038 1.893.088 7.277c.047 6.32.19 15.464.411 26.764.431 22.598 1.451 53.81 2.703 88.289 1.251 34.465 2.204 65.682 2.526 88.288.169 11.302.246 20.449.222 26.77l-.024 7.28-.022 1.894c-.008.426-.028.645-.028.645zM177.254 158.772c.165 0 .298 29.996.298 66.988 0 37.005-.133 66.994-.298 66.994-.166 0-.3-29.989-.3-66.994 0-36.992.134-66.988.3-66.988zM105.477 333.409c-.017.012-.213-.262-.573-.799l-.658-.994a11.208 11.208 0 0 1-.827-1.403c-1.243-2.115-2.656-5.422-3.642-9.705-.982-4.285-1.314-9.576-.712-15.353.66-5.768 2.209-12.035 4.977-18.151 1.396-3.064 3.197-5.841 5.208-8.285.484-.626.983-1.231 1.521-1.791.528-.571 1.035-1.15 1.566-1.694 1.106-1.045 2.144-2.118 3.283-3.024 2.186-1.92 4.497-3.449 6.672-4.836 1.133-.622 2.2-1.272 3.277-1.797 1.092-.496 2.099-1.061 3.135-1.432 4.068-1.654 7.57-2.459 10.015-2.668 1.212-.203 2.174-.129 2.816-.172.644-.012.982-.009.982.012 0 .021-.338.057-.979.109-.637.082-1.59.045-2.789.282-2.419.278-5.873 1.139-9.882 2.827-1.021.38-2.013.953-3.089 1.452-1.061.531-2.112 1.186-3.227 1.811-2.144 1.392-4.421 2.92-6.573 4.831-1.122.903-2.143 1.968-3.233 3.005-.522.539-1.022 1.114-1.541 1.678a21.768 21.768 0 0 0-1.498 1.775c-1.979 2.416-3.75 5.157-5.12 8.167-2.736 6.043-4.291 12.26-4.972 17.961-.627 5.718-.343 10.953.576 15.203.923 4.251 2.262 7.551 3.434 9.683.257.555.519 1.028.774 1.423l.607 1.021c.326.554.489.853.472.864z" fill="#33535F"></path><path fill="#17282F" d="M-28.132 344.937h556.308v30.364H-28.132z"></path></svg>